G75*
G70*
%OFA0B0*%
%FSLAX24Y24*%
%IPPOS*%
%LPD*%
%AMOC8*
5,1,8,0,0,1.08239X$1,22.5*
%
%ADD10C,0.0000*%
D10*
X002408Y001722D02*
X002408Y027313D01*
X024061Y027313D01*
X024061Y001722D01*
X002408Y001722D01*
X002998Y002903D02*
X003000Y002951D01*
X003006Y002999D01*
X003016Y003046D01*
X003029Y003092D01*
X003047Y003137D01*
X003067Y003181D01*
X003092Y003223D01*
X003120Y003262D01*
X003150Y003299D01*
X003184Y003333D01*
X003221Y003365D01*
X003259Y003394D01*
X003300Y003419D01*
X003343Y003441D01*
X003388Y003459D01*
X003434Y003473D01*
X003481Y003484D01*
X003529Y003491D01*
X003577Y003494D01*
X003625Y003493D01*
X003673Y003488D01*
X003721Y003479D01*
X003767Y003467D01*
X003812Y003450D01*
X003856Y003430D01*
X003898Y003407D01*
X003938Y003380D01*
X003976Y003350D01*
X004011Y003317D01*
X004043Y003281D01*
X004073Y003243D01*
X004099Y003202D01*
X004121Y003159D01*
X004141Y003115D01*
X004156Y003070D01*
X004168Y003023D01*
X004176Y002975D01*
X004180Y002927D01*
X004180Y002879D01*
X004176Y002831D01*
X004168Y002783D01*
X004156Y002736D01*
X004141Y002691D01*
X004121Y002647D01*
X004099Y002604D01*
X004073Y002563D01*
X004043Y002525D01*
X004011Y002489D01*
X003976Y002456D01*
X003938Y002426D01*
X003898Y002399D01*
X003856Y002376D01*
X003812Y002356D01*
X003767Y002339D01*
X003721Y002327D01*
X003673Y002318D01*
X003625Y002313D01*
X003577Y002312D01*
X003529Y002315D01*
X003481Y002322D01*
X003434Y002333D01*
X003388Y002347D01*
X003343Y002365D01*
X003300Y002387D01*
X003259Y002412D01*
X003221Y002441D01*
X003184Y002473D01*
X003150Y002507D01*
X003120Y002544D01*
X003092Y002583D01*
X003067Y002625D01*
X003047Y002669D01*
X003029Y002714D01*
X003016Y002760D01*
X003006Y002807D01*
X003000Y002855D01*
X002998Y002903D01*
X002998Y013927D02*
X003000Y013975D01*
X003006Y014023D01*
X003016Y014070D01*
X003029Y014116D01*
X003047Y014161D01*
X003067Y014205D01*
X003092Y014247D01*
X003120Y014286D01*
X003150Y014323D01*
X003184Y014357D01*
X003221Y014389D01*
X003259Y014418D01*
X003300Y014443D01*
X003343Y014465D01*
X003388Y014483D01*
X003434Y014497D01*
X003481Y014508D01*
X003529Y014515D01*
X003577Y014518D01*
X003625Y014517D01*
X003673Y014512D01*
X003721Y014503D01*
X003767Y014491D01*
X003812Y014474D01*
X003856Y014454D01*
X003898Y014431D01*
X003938Y014404D01*
X003976Y014374D01*
X004011Y014341D01*
X004043Y014305D01*
X004073Y014267D01*
X004099Y014226D01*
X004121Y014183D01*
X004141Y014139D01*
X004156Y014094D01*
X004168Y014047D01*
X004176Y013999D01*
X004180Y013951D01*
X004180Y013903D01*
X004176Y013855D01*
X004168Y013807D01*
X004156Y013760D01*
X004141Y013715D01*
X004121Y013671D01*
X004099Y013628D01*
X004073Y013587D01*
X004043Y013549D01*
X004011Y013513D01*
X003976Y013480D01*
X003938Y013450D01*
X003898Y013423D01*
X003856Y013400D01*
X003812Y013380D01*
X003767Y013363D01*
X003721Y013351D01*
X003673Y013342D01*
X003625Y013337D01*
X003577Y013336D01*
X003529Y013339D01*
X003481Y013346D01*
X003434Y013357D01*
X003388Y013371D01*
X003343Y013389D01*
X003300Y013411D01*
X003259Y013436D01*
X003221Y013465D01*
X003184Y013497D01*
X003150Y013531D01*
X003120Y013568D01*
X003092Y013607D01*
X003067Y013649D01*
X003047Y013693D01*
X003029Y013738D01*
X003016Y013784D01*
X003006Y013831D01*
X003000Y013879D01*
X002998Y013927D01*
X002810Y015722D02*
X002812Y015741D01*
X002817Y015760D01*
X002827Y015776D01*
X002839Y015791D01*
X002854Y015803D01*
X002870Y015813D01*
X002889Y015818D01*
X002908Y015820D01*
X002927Y015818D01*
X002946Y015813D01*
X002962Y015803D01*
X002977Y015791D01*
X002989Y015776D01*
X002999Y015760D01*
X003004Y015741D01*
X003006Y015722D01*
X003004Y015703D01*
X002999Y015684D01*
X002989Y015668D01*
X002977Y015653D01*
X002962Y015641D01*
X002946Y015631D01*
X002927Y015626D01*
X002908Y015624D01*
X002889Y015626D01*
X002870Y015631D01*
X002854Y015641D01*
X002839Y015653D01*
X002827Y015668D01*
X002817Y015684D01*
X002812Y015703D01*
X002810Y015722D01*
X003310Y015722D02*
X003312Y015741D01*
X003317Y015760D01*
X003327Y015776D01*
X003339Y015791D01*
X003354Y015803D01*
X003370Y015813D01*
X003389Y015818D01*
X003408Y015820D01*
X003427Y015818D01*
X003446Y015813D01*
X003462Y015803D01*
X003477Y015791D01*
X003489Y015776D01*
X003499Y015760D01*
X003504Y015741D01*
X003506Y015722D01*
X003504Y015703D01*
X003499Y015684D01*
X003489Y015668D01*
X003477Y015653D01*
X003462Y015641D01*
X003446Y015631D01*
X003427Y015626D01*
X003408Y015624D01*
X003389Y015626D01*
X003370Y015631D01*
X003354Y015641D01*
X003339Y015653D01*
X003327Y015668D01*
X003317Y015684D01*
X003312Y015703D01*
X003310Y015722D01*
X003810Y015722D02*
X003812Y015741D01*
X003817Y015760D01*
X003827Y015776D01*
X003839Y015791D01*
X003854Y015803D01*
X003870Y015813D01*
X003889Y015818D01*
X003908Y015820D01*
X003927Y015818D01*
X003946Y015813D01*
X003962Y015803D01*
X003977Y015791D01*
X003989Y015776D01*
X003999Y015760D01*
X004004Y015741D01*
X004006Y015722D01*
X004004Y015703D01*
X003999Y015684D01*
X003989Y015668D01*
X003977Y015653D01*
X003962Y015641D01*
X003946Y015631D01*
X003927Y015626D01*
X003908Y015624D01*
X003889Y015626D01*
X003870Y015631D01*
X003854Y015641D01*
X003839Y015653D01*
X003827Y015668D01*
X003817Y015684D01*
X003812Y015703D01*
X003810Y015722D01*
X004310Y015722D02*
X004312Y015741D01*
X004317Y015760D01*
X004327Y015776D01*
X004339Y015791D01*
X004354Y015803D01*
X004370Y015813D01*
X004389Y015818D01*
X004408Y015820D01*
X004427Y015818D01*
X004446Y015813D01*
X004462Y015803D01*
X004477Y015791D01*
X004489Y015776D01*
X004499Y015760D01*
X004504Y015741D01*
X004506Y015722D01*
X004504Y015703D01*
X004499Y015684D01*
X004489Y015668D01*
X004477Y015653D01*
X004462Y015641D01*
X004446Y015631D01*
X004427Y015626D01*
X004408Y015624D01*
X004389Y015626D01*
X004370Y015631D01*
X004354Y015641D01*
X004339Y015653D01*
X004327Y015668D01*
X004317Y015684D01*
X004312Y015703D01*
X004310Y015722D01*
X004810Y015722D02*
X004812Y015741D01*
X004817Y015760D01*
X004827Y015776D01*
X004839Y015791D01*
X004854Y015803D01*
X004870Y015813D01*
X004889Y015818D01*
X004908Y015820D01*
X004927Y015818D01*
X004946Y015813D01*
X004962Y015803D01*
X004977Y015791D01*
X004989Y015776D01*
X004999Y015760D01*
X005004Y015741D01*
X005006Y015722D01*
X005004Y015703D01*
X004999Y015684D01*
X004989Y015668D01*
X004977Y015653D01*
X004962Y015641D01*
X004946Y015631D01*
X004927Y015626D01*
X004908Y015624D01*
X004889Y015626D01*
X004870Y015631D01*
X004854Y015641D01*
X004839Y015653D01*
X004827Y015668D01*
X004817Y015684D01*
X004812Y015703D01*
X004810Y015722D01*
X005310Y015722D02*
X005312Y015741D01*
X005317Y015760D01*
X005327Y015776D01*
X005339Y015791D01*
X005354Y015803D01*
X005370Y015813D01*
X005389Y015818D01*
X005408Y015820D01*
X005427Y015818D01*
X005446Y015813D01*
X005462Y015803D01*
X005477Y015791D01*
X005489Y015776D01*
X005499Y015760D01*
X005504Y015741D01*
X005506Y015722D01*
X005504Y015703D01*
X005499Y015684D01*
X005489Y015668D01*
X005477Y015653D01*
X005462Y015641D01*
X005446Y015631D01*
X005427Y015626D01*
X005408Y015624D01*
X005389Y015626D01*
X005370Y015631D01*
X005354Y015641D01*
X005339Y015653D01*
X005327Y015668D01*
X005317Y015684D01*
X005312Y015703D01*
X005310Y015722D01*
X005810Y015722D02*
X005812Y015741D01*
X005817Y015760D01*
X005827Y015776D01*
X005839Y015791D01*
X005854Y015803D01*
X005870Y015813D01*
X005889Y015818D01*
X005908Y015820D01*
X005927Y015818D01*
X005946Y015813D01*
X005962Y015803D01*
X005977Y015791D01*
X005989Y015776D01*
X005999Y015760D01*
X006004Y015741D01*
X006006Y015722D01*
X006004Y015703D01*
X005999Y015684D01*
X005989Y015668D01*
X005977Y015653D01*
X005962Y015641D01*
X005946Y015631D01*
X005927Y015626D01*
X005908Y015624D01*
X005889Y015626D01*
X005870Y015631D01*
X005854Y015641D01*
X005839Y015653D01*
X005827Y015668D01*
X005817Y015684D01*
X005812Y015703D01*
X005810Y015722D01*
X006310Y015722D02*
X006312Y015741D01*
X006317Y015760D01*
X006327Y015776D01*
X006339Y015791D01*
X006354Y015803D01*
X006370Y015813D01*
X006389Y015818D01*
X006408Y015820D01*
X006427Y015818D01*
X006446Y015813D01*
X006462Y015803D01*
X006477Y015791D01*
X006489Y015776D01*
X006499Y015760D01*
X006504Y015741D01*
X006506Y015722D01*
X006504Y015703D01*
X006499Y015684D01*
X006489Y015668D01*
X006477Y015653D01*
X006462Y015641D01*
X006446Y015631D01*
X006427Y015626D01*
X006408Y015624D01*
X006389Y015626D01*
X006370Y015631D01*
X006354Y015641D01*
X006339Y015653D01*
X006327Y015668D01*
X006317Y015684D01*
X006312Y015703D01*
X006310Y015722D01*
X006810Y015722D02*
X006812Y015741D01*
X006817Y015760D01*
X006827Y015776D01*
X006839Y015791D01*
X006854Y015803D01*
X006870Y015813D01*
X006889Y015818D01*
X006908Y015820D01*
X006927Y015818D01*
X006946Y015813D01*
X006962Y015803D01*
X006977Y015791D01*
X006989Y015776D01*
X006999Y015760D01*
X007004Y015741D01*
X007006Y015722D01*
X007004Y015703D01*
X006999Y015684D01*
X006989Y015668D01*
X006977Y015653D01*
X006962Y015641D01*
X006946Y015631D01*
X006927Y015626D01*
X006908Y015624D01*
X006889Y015626D01*
X006870Y015631D01*
X006854Y015641D01*
X006839Y015653D01*
X006827Y015668D01*
X006817Y015684D01*
X006812Y015703D01*
X006810Y015722D01*
X007310Y015722D02*
X007312Y015741D01*
X007317Y015760D01*
X007327Y015776D01*
X007339Y015791D01*
X007354Y015803D01*
X007370Y015813D01*
X007389Y015818D01*
X007408Y015820D01*
X007427Y015818D01*
X007446Y015813D01*
X007462Y015803D01*
X007477Y015791D01*
X007489Y015776D01*
X007499Y015760D01*
X007504Y015741D01*
X007506Y015722D01*
X007504Y015703D01*
X007499Y015684D01*
X007489Y015668D01*
X007477Y015653D01*
X007462Y015641D01*
X007446Y015631D01*
X007427Y015626D01*
X007408Y015624D01*
X007389Y015626D01*
X007370Y015631D01*
X007354Y015641D01*
X007339Y015653D01*
X007327Y015668D01*
X007317Y015684D01*
X007312Y015703D01*
X007310Y015722D01*
X007810Y015722D02*
X007812Y015741D01*
X007817Y015760D01*
X007827Y015776D01*
X007839Y015791D01*
X007854Y015803D01*
X007870Y015813D01*
X007889Y015818D01*
X007908Y015820D01*
X007927Y015818D01*
X007946Y015813D01*
X007962Y015803D01*
X007977Y015791D01*
X007989Y015776D01*
X007999Y015760D01*
X008004Y015741D01*
X008006Y015722D01*
X008004Y015703D01*
X007999Y015684D01*
X007989Y015668D01*
X007977Y015653D01*
X007962Y015641D01*
X007946Y015631D01*
X007927Y015626D01*
X007908Y015624D01*
X007889Y015626D01*
X007870Y015631D01*
X007854Y015641D01*
X007839Y015653D01*
X007827Y015668D01*
X007817Y015684D01*
X007812Y015703D01*
X007810Y015722D01*
X008310Y015722D02*
X008312Y015741D01*
X008317Y015760D01*
X008327Y015776D01*
X008339Y015791D01*
X008354Y015803D01*
X008370Y015813D01*
X008389Y015818D01*
X008408Y015820D01*
X008427Y015818D01*
X008446Y015813D01*
X008462Y015803D01*
X008477Y015791D01*
X008489Y015776D01*
X008499Y015760D01*
X008504Y015741D01*
X008506Y015722D01*
X008504Y015703D01*
X008499Y015684D01*
X008489Y015668D01*
X008477Y015653D01*
X008462Y015641D01*
X008446Y015631D01*
X008427Y015626D01*
X008408Y015624D01*
X008389Y015626D01*
X008370Y015631D01*
X008354Y015641D01*
X008339Y015653D01*
X008327Y015668D01*
X008317Y015684D01*
X008312Y015703D01*
X008310Y015722D01*
X008810Y015722D02*
X008812Y015741D01*
X008817Y015760D01*
X008827Y015776D01*
X008839Y015791D01*
X008854Y015803D01*
X008870Y015813D01*
X008889Y015818D01*
X008908Y015820D01*
X008927Y015818D01*
X008946Y015813D01*
X008962Y015803D01*
X008977Y015791D01*
X008989Y015776D01*
X008999Y015760D01*
X009004Y015741D01*
X009006Y015722D01*
X009004Y015703D01*
X008999Y015684D01*
X008989Y015668D01*
X008977Y015653D01*
X008962Y015641D01*
X008946Y015631D01*
X008927Y015626D01*
X008908Y015624D01*
X008889Y015626D01*
X008870Y015631D01*
X008854Y015641D01*
X008839Y015653D01*
X008827Y015668D01*
X008817Y015684D01*
X008812Y015703D01*
X008810Y015722D01*
X009310Y015722D02*
X009312Y015741D01*
X009317Y015760D01*
X009327Y015776D01*
X009339Y015791D01*
X009354Y015803D01*
X009370Y015813D01*
X009389Y015818D01*
X009408Y015820D01*
X009427Y015818D01*
X009446Y015813D01*
X009462Y015803D01*
X009477Y015791D01*
X009489Y015776D01*
X009499Y015760D01*
X009504Y015741D01*
X009506Y015722D01*
X009504Y015703D01*
X009499Y015684D01*
X009489Y015668D01*
X009477Y015653D01*
X009462Y015641D01*
X009446Y015631D01*
X009427Y015626D01*
X009408Y015624D01*
X009389Y015626D01*
X009370Y015631D01*
X009354Y015641D01*
X009339Y015653D01*
X009327Y015668D01*
X009317Y015684D01*
X009312Y015703D01*
X009310Y015722D01*
X009810Y015722D02*
X009812Y015741D01*
X009817Y015760D01*
X009827Y015776D01*
X009839Y015791D01*
X009854Y015803D01*
X009870Y015813D01*
X009889Y015818D01*
X009908Y015820D01*
X009927Y015818D01*
X009946Y015813D01*
X009962Y015803D01*
X009977Y015791D01*
X009989Y015776D01*
X009999Y015760D01*
X010004Y015741D01*
X010006Y015722D01*
X010004Y015703D01*
X009999Y015684D01*
X009989Y015668D01*
X009977Y015653D01*
X009962Y015641D01*
X009946Y015631D01*
X009927Y015626D01*
X009908Y015624D01*
X009889Y015626D01*
X009870Y015631D01*
X009854Y015641D01*
X009839Y015653D01*
X009827Y015668D01*
X009817Y015684D01*
X009812Y015703D01*
X009810Y015722D01*
X010310Y015722D02*
X010312Y015741D01*
X010317Y015760D01*
X010327Y015776D01*
X010339Y015791D01*
X010354Y015803D01*
X010370Y015813D01*
X010389Y015818D01*
X010408Y015820D01*
X010427Y015818D01*
X010446Y015813D01*
X010462Y015803D01*
X010477Y015791D01*
X010489Y015776D01*
X010499Y015760D01*
X010504Y015741D01*
X010506Y015722D01*
X010504Y015703D01*
X010499Y015684D01*
X010489Y015668D01*
X010477Y015653D01*
X010462Y015641D01*
X010446Y015631D01*
X010427Y015626D01*
X010408Y015624D01*
X010389Y015626D01*
X010370Y015631D01*
X010354Y015641D01*
X010339Y015653D01*
X010327Y015668D01*
X010317Y015684D01*
X010312Y015703D01*
X010310Y015722D01*
X010810Y015722D02*
X010812Y015741D01*
X010817Y015760D01*
X010827Y015776D01*
X010839Y015791D01*
X010854Y015803D01*
X010870Y015813D01*
X010889Y015818D01*
X010908Y015820D01*
X010927Y015818D01*
X010946Y015813D01*
X010962Y015803D01*
X010977Y015791D01*
X010989Y015776D01*
X010999Y015760D01*
X011004Y015741D01*
X011006Y015722D01*
X011004Y015703D01*
X010999Y015684D01*
X010989Y015668D01*
X010977Y015653D01*
X010962Y015641D01*
X010946Y015631D01*
X010927Y015626D01*
X010908Y015624D01*
X010889Y015626D01*
X010870Y015631D01*
X010854Y015641D01*
X010839Y015653D01*
X010827Y015668D01*
X010817Y015684D01*
X010812Y015703D01*
X010810Y015722D01*
X011310Y015722D02*
X011312Y015741D01*
X011317Y015760D01*
X011327Y015776D01*
X011339Y015791D01*
X011354Y015803D01*
X011370Y015813D01*
X011389Y015818D01*
X011408Y015820D01*
X011427Y015818D01*
X011446Y015813D01*
X011462Y015803D01*
X011477Y015791D01*
X011489Y015776D01*
X011499Y015760D01*
X011504Y015741D01*
X011506Y015722D01*
X011504Y015703D01*
X011499Y015684D01*
X011489Y015668D01*
X011477Y015653D01*
X011462Y015641D01*
X011446Y015631D01*
X011427Y015626D01*
X011408Y015624D01*
X011389Y015626D01*
X011370Y015631D01*
X011354Y015641D01*
X011339Y015653D01*
X011327Y015668D01*
X011317Y015684D01*
X011312Y015703D01*
X011310Y015722D01*
X011810Y015722D02*
X011812Y015741D01*
X011817Y015760D01*
X011827Y015776D01*
X011839Y015791D01*
X011854Y015803D01*
X011870Y015813D01*
X011889Y015818D01*
X011908Y015820D01*
X011927Y015818D01*
X011946Y015813D01*
X011962Y015803D01*
X011977Y015791D01*
X011989Y015776D01*
X011999Y015760D01*
X012004Y015741D01*
X012006Y015722D01*
X012004Y015703D01*
X011999Y015684D01*
X011989Y015668D01*
X011977Y015653D01*
X011962Y015641D01*
X011946Y015631D01*
X011927Y015626D01*
X011908Y015624D01*
X011889Y015626D01*
X011870Y015631D01*
X011854Y015641D01*
X011839Y015653D01*
X011827Y015668D01*
X011817Y015684D01*
X011812Y015703D01*
X011810Y015722D01*
X012310Y015722D02*
X012312Y015741D01*
X012317Y015760D01*
X012327Y015776D01*
X012339Y015791D01*
X012354Y015803D01*
X012370Y015813D01*
X012389Y015818D01*
X012408Y015820D01*
X012427Y015818D01*
X012446Y015813D01*
X012462Y015803D01*
X012477Y015791D01*
X012489Y015776D01*
X012499Y015760D01*
X012504Y015741D01*
X012506Y015722D01*
X012504Y015703D01*
X012499Y015684D01*
X012489Y015668D01*
X012477Y015653D01*
X012462Y015641D01*
X012446Y015631D01*
X012427Y015626D01*
X012408Y015624D01*
X012389Y015626D01*
X012370Y015631D01*
X012354Y015641D01*
X012339Y015653D01*
X012327Y015668D01*
X012317Y015684D01*
X012312Y015703D01*
X012310Y015722D01*
X012810Y015722D02*
X012812Y015741D01*
X012817Y015760D01*
X012827Y015776D01*
X012839Y015791D01*
X012854Y015803D01*
X012870Y015813D01*
X012889Y015818D01*
X012908Y015820D01*
X012927Y015818D01*
X012946Y015813D01*
X012962Y015803D01*
X012977Y015791D01*
X012989Y015776D01*
X012999Y015760D01*
X013004Y015741D01*
X013006Y015722D01*
X013004Y015703D01*
X012999Y015684D01*
X012989Y015668D01*
X012977Y015653D01*
X012962Y015641D01*
X012946Y015631D01*
X012927Y015626D01*
X012908Y015624D01*
X012889Y015626D01*
X012870Y015631D01*
X012854Y015641D01*
X012839Y015653D01*
X012827Y015668D01*
X012817Y015684D01*
X012812Y015703D01*
X012810Y015722D01*
X013310Y015722D02*
X013312Y015741D01*
X013317Y015760D01*
X013327Y015776D01*
X013339Y015791D01*
X013354Y015803D01*
X013370Y015813D01*
X013389Y015818D01*
X013408Y015820D01*
X013427Y015818D01*
X013446Y015813D01*
X013462Y015803D01*
X013477Y015791D01*
X013489Y015776D01*
X013499Y015760D01*
X013504Y015741D01*
X013506Y015722D01*
X013504Y015703D01*
X013499Y015684D01*
X013489Y015668D01*
X013477Y015653D01*
X013462Y015641D01*
X013446Y015631D01*
X013427Y015626D01*
X013408Y015624D01*
X013389Y015626D01*
X013370Y015631D01*
X013354Y015641D01*
X013339Y015653D01*
X013327Y015668D01*
X013317Y015684D01*
X013312Y015703D01*
X013310Y015722D01*
X013810Y015722D02*
X013812Y015741D01*
X013817Y015760D01*
X013827Y015776D01*
X013839Y015791D01*
X013854Y015803D01*
X013870Y015813D01*
X013889Y015818D01*
X013908Y015820D01*
X013927Y015818D01*
X013946Y015813D01*
X013962Y015803D01*
X013977Y015791D01*
X013989Y015776D01*
X013999Y015760D01*
X014004Y015741D01*
X014006Y015722D01*
X014004Y015703D01*
X013999Y015684D01*
X013989Y015668D01*
X013977Y015653D01*
X013962Y015641D01*
X013946Y015631D01*
X013927Y015626D01*
X013908Y015624D01*
X013889Y015626D01*
X013870Y015631D01*
X013854Y015641D01*
X013839Y015653D01*
X013827Y015668D01*
X013817Y015684D01*
X013812Y015703D01*
X013810Y015722D01*
X014310Y015722D02*
X014312Y015741D01*
X014317Y015760D01*
X014327Y015776D01*
X014339Y015791D01*
X014354Y015803D01*
X014370Y015813D01*
X014389Y015818D01*
X014408Y015820D01*
X014427Y015818D01*
X014446Y015813D01*
X014462Y015803D01*
X014477Y015791D01*
X014489Y015776D01*
X014499Y015760D01*
X014504Y015741D01*
X014506Y015722D01*
X014504Y015703D01*
X014499Y015684D01*
X014489Y015668D01*
X014477Y015653D01*
X014462Y015641D01*
X014446Y015631D01*
X014427Y015626D01*
X014408Y015624D01*
X014389Y015626D01*
X014370Y015631D01*
X014354Y015641D01*
X014339Y015653D01*
X014327Y015668D01*
X014317Y015684D01*
X014312Y015703D01*
X014310Y015722D01*
X014810Y015722D02*
X014812Y015741D01*
X014817Y015760D01*
X014827Y015776D01*
X014839Y015791D01*
X014854Y015803D01*
X014870Y015813D01*
X014889Y015818D01*
X014908Y015820D01*
X014927Y015818D01*
X014946Y015813D01*
X014962Y015803D01*
X014977Y015791D01*
X014989Y015776D01*
X014999Y015760D01*
X015004Y015741D01*
X015006Y015722D01*
X015004Y015703D01*
X014999Y015684D01*
X014989Y015668D01*
X014977Y015653D01*
X014962Y015641D01*
X014946Y015631D01*
X014927Y015626D01*
X014908Y015624D01*
X014889Y015626D01*
X014870Y015631D01*
X014854Y015641D01*
X014839Y015653D01*
X014827Y015668D01*
X014817Y015684D01*
X014812Y015703D01*
X014810Y015722D01*
X015310Y015722D02*
X015312Y015741D01*
X015317Y015760D01*
X015327Y015776D01*
X015339Y015791D01*
X015354Y015803D01*
X015370Y015813D01*
X015389Y015818D01*
X015408Y015820D01*
X015427Y015818D01*
X015446Y015813D01*
X015462Y015803D01*
X015477Y015791D01*
X015489Y015776D01*
X015499Y015760D01*
X015504Y015741D01*
X015506Y015722D01*
X015504Y015703D01*
X015499Y015684D01*
X015489Y015668D01*
X015477Y015653D01*
X015462Y015641D01*
X015446Y015631D01*
X015427Y015626D01*
X015408Y015624D01*
X015389Y015626D01*
X015370Y015631D01*
X015354Y015641D01*
X015339Y015653D01*
X015327Y015668D01*
X015317Y015684D01*
X015312Y015703D01*
X015310Y015722D01*
X015810Y015722D02*
X015812Y015741D01*
X015817Y015760D01*
X015827Y015776D01*
X015839Y015791D01*
X015854Y015803D01*
X015870Y015813D01*
X015889Y015818D01*
X015908Y015820D01*
X015927Y015818D01*
X015946Y015813D01*
X015962Y015803D01*
X015977Y015791D01*
X015989Y015776D01*
X015999Y015760D01*
X016004Y015741D01*
X016006Y015722D01*
X016004Y015703D01*
X015999Y015684D01*
X015989Y015668D01*
X015977Y015653D01*
X015962Y015641D01*
X015946Y015631D01*
X015927Y015626D01*
X015908Y015624D01*
X015889Y015626D01*
X015870Y015631D01*
X015854Y015641D01*
X015839Y015653D01*
X015827Y015668D01*
X015817Y015684D01*
X015812Y015703D01*
X015810Y015722D01*
X016310Y015722D02*
X016312Y015741D01*
X016317Y015760D01*
X016327Y015776D01*
X016339Y015791D01*
X016354Y015803D01*
X016370Y015813D01*
X016389Y015818D01*
X016408Y015820D01*
X016427Y015818D01*
X016446Y015813D01*
X016462Y015803D01*
X016477Y015791D01*
X016489Y015776D01*
X016499Y015760D01*
X016504Y015741D01*
X016506Y015722D01*
X016504Y015703D01*
X016499Y015684D01*
X016489Y015668D01*
X016477Y015653D01*
X016462Y015641D01*
X016446Y015631D01*
X016427Y015626D01*
X016408Y015624D01*
X016389Y015626D01*
X016370Y015631D01*
X016354Y015641D01*
X016339Y015653D01*
X016327Y015668D01*
X016317Y015684D01*
X016312Y015703D01*
X016310Y015722D01*
X016810Y015722D02*
X016812Y015741D01*
X016817Y015760D01*
X016827Y015776D01*
X016839Y015791D01*
X016854Y015803D01*
X016870Y015813D01*
X016889Y015818D01*
X016908Y015820D01*
X016927Y015818D01*
X016946Y015813D01*
X016962Y015803D01*
X016977Y015791D01*
X016989Y015776D01*
X016999Y015760D01*
X017004Y015741D01*
X017006Y015722D01*
X017004Y015703D01*
X016999Y015684D01*
X016989Y015668D01*
X016977Y015653D01*
X016962Y015641D01*
X016946Y015631D01*
X016927Y015626D01*
X016908Y015624D01*
X016889Y015626D01*
X016870Y015631D01*
X016854Y015641D01*
X016839Y015653D01*
X016827Y015668D01*
X016817Y015684D01*
X016812Y015703D01*
X016810Y015722D01*
X017310Y015722D02*
X017312Y015741D01*
X017317Y015760D01*
X017327Y015776D01*
X017339Y015791D01*
X017354Y015803D01*
X017370Y015813D01*
X017389Y015818D01*
X017408Y015820D01*
X017427Y015818D01*
X017446Y015813D01*
X017462Y015803D01*
X017477Y015791D01*
X017489Y015776D01*
X017499Y015760D01*
X017504Y015741D01*
X017506Y015722D01*
X017504Y015703D01*
X017499Y015684D01*
X017489Y015668D01*
X017477Y015653D01*
X017462Y015641D01*
X017446Y015631D01*
X017427Y015626D01*
X017408Y015624D01*
X017389Y015626D01*
X017370Y015631D01*
X017354Y015641D01*
X017339Y015653D01*
X017327Y015668D01*
X017317Y015684D01*
X017312Y015703D01*
X017310Y015722D01*
X017810Y015722D02*
X017812Y015741D01*
X017817Y015760D01*
X017827Y015776D01*
X017839Y015791D01*
X017854Y015803D01*
X017870Y015813D01*
X017889Y015818D01*
X017908Y015820D01*
X017927Y015818D01*
X017946Y015813D01*
X017962Y015803D01*
X017977Y015791D01*
X017989Y015776D01*
X017999Y015760D01*
X018004Y015741D01*
X018006Y015722D01*
X018004Y015703D01*
X017999Y015684D01*
X017989Y015668D01*
X017977Y015653D01*
X017962Y015641D01*
X017946Y015631D01*
X017927Y015626D01*
X017908Y015624D01*
X017889Y015626D01*
X017870Y015631D01*
X017854Y015641D01*
X017839Y015653D01*
X017827Y015668D01*
X017817Y015684D01*
X017812Y015703D01*
X017810Y015722D01*
X018310Y015722D02*
X018312Y015741D01*
X018317Y015760D01*
X018327Y015776D01*
X018339Y015791D01*
X018354Y015803D01*
X018370Y015813D01*
X018389Y015818D01*
X018408Y015820D01*
X018427Y015818D01*
X018446Y015813D01*
X018462Y015803D01*
X018477Y015791D01*
X018489Y015776D01*
X018499Y015760D01*
X018504Y015741D01*
X018506Y015722D01*
X018504Y015703D01*
X018499Y015684D01*
X018489Y015668D01*
X018477Y015653D01*
X018462Y015641D01*
X018446Y015631D01*
X018427Y015626D01*
X018408Y015624D01*
X018389Y015626D01*
X018370Y015631D01*
X018354Y015641D01*
X018339Y015653D01*
X018327Y015668D01*
X018317Y015684D01*
X018312Y015703D01*
X018310Y015722D01*
X018810Y015722D02*
X018812Y015741D01*
X018817Y015760D01*
X018827Y015776D01*
X018839Y015791D01*
X018854Y015803D01*
X018870Y015813D01*
X018889Y015818D01*
X018908Y015820D01*
X018927Y015818D01*
X018946Y015813D01*
X018962Y015803D01*
X018977Y015791D01*
X018989Y015776D01*
X018999Y015760D01*
X019004Y015741D01*
X019006Y015722D01*
X019004Y015703D01*
X018999Y015684D01*
X018989Y015668D01*
X018977Y015653D01*
X018962Y015641D01*
X018946Y015631D01*
X018927Y015626D01*
X018908Y015624D01*
X018889Y015626D01*
X018870Y015631D01*
X018854Y015641D01*
X018839Y015653D01*
X018827Y015668D01*
X018817Y015684D01*
X018812Y015703D01*
X018810Y015722D01*
X019310Y015722D02*
X019312Y015741D01*
X019317Y015760D01*
X019327Y015776D01*
X019339Y015791D01*
X019354Y015803D01*
X019370Y015813D01*
X019389Y015818D01*
X019408Y015820D01*
X019427Y015818D01*
X019446Y015813D01*
X019462Y015803D01*
X019477Y015791D01*
X019489Y015776D01*
X019499Y015760D01*
X019504Y015741D01*
X019506Y015722D01*
X019504Y015703D01*
X019499Y015684D01*
X019489Y015668D01*
X019477Y015653D01*
X019462Y015641D01*
X019446Y015631D01*
X019427Y015626D01*
X019408Y015624D01*
X019389Y015626D01*
X019370Y015631D01*
X019354Y015641D01*
X019339Y015653D01*
X019327Y015668D01*
X019317Y015684D01*
X019312Y015703D01*
X019310Y015722D01*
X019810Y015722D02*
X019812Y015741D01*
X019817Y015760D01*
X019827Y015776D01*
X019839Y015791D01*
X019854Y015803D01*
X019870Y015813D01*
X019889Y015818D01*
X019908Y015820D01*
X019927Y015818D01*
X019946Y015813D01*
X019962Y015803D01*
X019977Y015791D01*
X019989Y015776D01*
X019999Y015760D01*
X020004Y015741D01*
X020006Y015722D01*
X020004Y015703D01*
X019999Y015684D01*
X019989Y015668D01*
X019977Y015653D01*
X019962Y015641D01*
X019946Y015631D01*
X019927Y015626D01*
X019908Y015624D01*
X019889Y015626D01*
X019870Y015631D01*
X019854Y015641D01*
X019839Y015653D01*
X019827Y015668D01*
X019817Y015684D01*
X019812Y015703D01*
X019810Y015722D01*
X020310Y015722D02*
X020312Y015741D01*
X020317Y015760D01*
X020327Y015776D01*
X020339Y015791D01*
X020354Y015803D01*
X020370Y015813D01*
X020389Y015818D01*
X020408Y015820D01*
X020427Y015818D01*
X020446Y015813D01*
X020462Y015803D01*
X020477Y015791D01*
X020489Y015776D01*
X020499Y015760D01*
X020504Y015741D01*
X020506Y015722D01*
X020504Y015703D01*
X020499Y015684D01*
X020489Y015668D01*
X020477Y015653D01*
X020462Y015641D01*
X020446Y015631D01*
X020427Y015626D01*
X020408Y015624D01*
X020389Y015626D01*
X020370Y015631D01*
X020354Y015641D01*
X020339Y015653D01*
X020327Y015668D01*
X020317Y015684D01*
X020312Y015703D01*
X020310Y015722D01*
X020810Y015722D02*
X020812Y015741D01*
X020817Y015760D01*
X020827Y015776D01*
X020839Y015791D01*
X020854Y015803D01*
X020870Y015813D01*
X020889Y015818D01*
X020908Y015820D01*
X020927Y015818D01*
X020946Y015813D01*
X020962Y015803D01*
X020977Y015791D01*
X020989Y015776D01*
X020999Y015760D01*
X021004Y015741D01*
X021006Y015722D01*
X021004Y015703D01*
X020999Y015684D01*
X020989Y015668D01*
X020977Y015653D01*
X020962Y015641D01*
X020946Y015631D01*
X020927Y015626D01*
X020908Y015624D01*
X020889Y015626D01*
X020870Y015631D01*
X020854Y015641D01*
X020839Y015653D01*
X020827Y015668D01*
X020817Y015684D01*
X020812Y015703D01*
X020810Y015722D01*
X021310Y015722D02*
X021312Y015741D01*
X021317Y015760D01*
X021327Y015776D01*
X021339Y015791D01*
X021354Y015803D01*
X021370Y015813D01*
X021389Y015818D01*
X021408Y015820D01*
X021427Y015818D01*
X021446Y015813D01*
X021462Y015803D01*
X021477Y015791D01*
X021489Y015776D01*
X021499Y015760D01*
X021504Y015741D01*
X021506Y015722D01*
X021504Y015703D01*
X021499Y015684D01*
X021489Y015668D01*
X021477Y015653D01*
X021462Y015641D01*
X021446Y015631D01*
X021427Y015626D01*
X021408Y015624D01*
X021389Y015626D01*
X021370Y015631D01*
X021354Y015641D01*
X021339Y015653D01*
X021327Y015668D01*
X021317Y015684D01*
X021312Y015703D01*
X021310Y015722D01*
X021810Y015722D02*
X021812Y015741D01*
X021817Y015760D01*
X021827Y015776D01*
X021839Y015791D01*
X021854Y015803D01*
X021870Y015813D01*
X021889Y015818D01*
X021908Y015820D01*
X021927Y015818D01*
X021946Y015813D01*
X021962Y015803D01*
X021977Y015791D01*
X021989Y015776D01*
X021999Y015760D01*
X022004Y015741D01*
X022006Y015722D01*
X022004Y015703D01*
X021999Y015684D01*
X021989Y015668D01*
X021977Y015653D01*
X021962Y015641D01*
X021946Y015631D01*
X021927Y015626D01*
X021908Y015624D01*
X021889Y015626D01*
X021870Y015631D01*
X021854Y015641D01*
X021839Y015653D01*
X021827Y015668D01*
X021817Y015684D01*
X021812Y015703D01*
X021810Y015722D01*
X022310Y015722D02*
X022312Y015741D01*
X022317Y015760D01*
X022327Y015776D01*
X022339Y015791D01*
X022354Y015803D01*
X022370Y015813D01*
X022389Y015818D01*
X022408Y015820D01*
X022427Y015818D01*
X022446Y015813D01*
X022462Y015803D01*
X022477Y015791D01*
X022489Y015776D01*
X022499Y015760D01*
X022504Y015741D01*
X022506Y015722D01*
X022504Y015703D01*
X022499Y015684D01*
X022489Y015668D01*
X022477Y015653D01*
X022462Y015641D01*
X022446Y015631D01*
X022427Y015626D01*
X022408Y015624D01*
X022389Y015626D01*
X022370Y015631D01*
X022354Y015641D01*
X022339Y015653D01*
X022327Y015668D01*
X022317Y015684D01*
X022312Y015703D01*
X022310Y015722D01*
X022810Y015722D02*
X022812Y015741D01*
X022817Y015760D01*
X022827Y015776D01*
X022839Y015791D01*
X022854Y015803D01*
X022870Y015813D01*
X022889Y015818D01*
X022908Y015820D01*
X022927Y015818D01*
X022946Y015813D01*
X022962Y015803D01*
X022977Y015791D01*
X022989Y015776D01*
X022999Y015760D01*
X023004Y015741D01*
X023006Y015722D01*
X023004Y015703D01*
X022999Y015684D01*
X022989Y015668D01*
X022977Y015653D01*
X022962Y015641D01*
X022946Y015631D01*
X022927Y015626D01*
X022908Y015624D01*
X022889Y015626D01*
X022870Y015631D01*
X022854Y015641D01*
X022839Y015653D01*
X022827Y015668D01*
X022817Y015684D01*
X022812Y015703D01*
X022810Y015722D01*
X023310Y015722D02*
X023312Y015741D01*
X023317Y015760D01*
X023327Y015776D01*
X023339Y015791D01*
X023354Y015803D01*
X023370Y015813D01*
X023389Y015818D01*
X023408Y015820D01*
X023427Y015818D01*
X023446Y015813D01*
X023462Y015803D01*
X023477Y015791D01*
X023489Y015776D01*
X023499Y015760D01*
X023504Y015741D01*
X023506Y015722D01*
X023504Y015703D01*
X023499Y015684D01*
X023489Y015668D01*
X023477Y015653D01*
X023462Y015641D01*
X023446Y015631D01*
X023427Y015626D01*
X023408Y015624D01*
X023389Y015626D01*
X023370Y015631D01*
X023354Y015641D01*
X023339Y015653D01*
X023327Y015668D01*
X023317Y015684D01*
X023312Y015703D01*
X023310Y015722D01*
X023810Y015722D02*
X023812Y015741D01*
X023817Y015760D01*
X023827Y015776D01*
X023839Y015791D01*
X023854Y015803D01*
X023870Y015813D01*
X023889Y015818D01*
X023908Y015820D01*
X023927Y015818D01*
X023946Y015813D01*
X023962Y015803D01*
X023977Y015791D01*
X023989Y015776D01*
X023999Y015760D01*
X024004Y015741D01*
X024006Y015722D01*
X024004Y015703D01*
X023999Y015684D01*
X023989Y015668D01*
X023977Y015653D01*
X023962Y015641D01*
X023946Y015631D01*
X023927Y015626D01*
X023908Y015624D01*
X023889Y015626D01*
X023870Y015631D01*
X023854Y015641D01*
X023839Y015653D01*
X023827Y015668D01*
X023817Y015684D01*
X023812Y015703D01*
X023810Y015722D01*
X022289Y013927D02*
X022291Y013975D01*
X022297Y014023D01*
X022307Y014070D01*
X022320Y014116D01*
X022338Y014161D01*
X022358Y014205D01*
X022383Y014247D01*
X022411Y014286D01*
X022441Y014323D01*
X022475Y014357D01*
X022512Y014389D01*
X022550Y014418D01*
X022591Y014443D01*
X022634Y014465D01*
X022679Y014483D01*
X022725Y014497D01*
X022772Y014508D01*
X022820Y014515D01*
X022868Y014518D01*
X022916Y014517D01*
X022964Y014512D01*
X023012Y014503D01*
X023058Y014491D01*
X023103Y014474D01*
X023147Y014454D01*
X023189Y014431D01*
X023229Y014404D01*
X023267Y014374D01*
X023302Y014341D01*
X023334Y014305D01*
X023364Y014267D01*
X023390Y014226D01*
X023412Y014183D01*
X023432Y014139D01*
X023447Y014094D01*
X023459Y014047D01*
X023467Y013999D01*
X023471Y013951D01*
X023471Y013903D01*
X023467Y013855D01*
X023459Y013807D01*
X023447Y013760D01*
X023432Y013715D01*
X023412Y013671D01*
X023390Y013628D01*
X023364Y013587D01*
X023334Y013549D01*
X023302Y013513D01*
X023267Y013480D01*
X023229Y013450D01*
X023189Y013423D01*
X023147Y013400D01*
X023103Y013380D01*
X023058Y013363D01*
X023012Y013351D01*
X022964Y013342D01*
X022916Y013337D01*
X022868Y013336D01*
X022820Y013339D01*
X022772Y013346D01*
X022725Y013357D01*
X022679Y013371D01*
X022634Y013389D01*
X022591Y013411D01*
X022550Y013436D01*
X022512Y013465D01*
X022475Y013497D01*
X022441Y013531D01*
X022411Y013568D01*
X022383Y013607D01*
X022358Y013649D01*
X022338Y013693D01*
X022320Y013738D01*
X022307Y013784D01*
X022297Y013831D01*
X022291Y013879D01*
X022289Y013927D01*
X022289Y002903D02*
X022291Y002951D01*
X022297Y002999D01*
X022307Y003046D01*
X022320Y003092D01*
X022338Y003137D01*
X022358Y003181D01*
X022383Y003223D01*
X022411Y003262D01*
X022441Y003299D01*
X022475Y003333D01*
X022512Y003365D01*
X022550Y003394D01*
X022591Y003419D01*
X022634Y003441D01*
X022679Y003459D01*
X022725Y003473D01*
X022772Y003484D01*
X022820Y003491D01*
X022868Y003494D01*
X022916Y003493D01*
X022964Y003488D01*
X023012Y003479D01*
X023058Y003467D01*
X023103Y003450D01*
X023147Y003430D01*
X023189Y003407D01*
X023229Y003380D01*
X023267Y003350D01*
X023302Y003317D01*
X023334Y003281D01*
X023364Y003243D01*
X023390Y003202D01*
X023412Y003159D01*
X023432Y003115D01*
X023447Y003070D01*
X023459Y003023D01*
X023467Y002975D01*
X023471Y002927D01*
X023471Y002879D01*
X023467Y002831D01*
X023459Y002783D01*
X023447Y002736D01*
X023432Y002691D01*
X023412Y002647D01*
X023390Y002604D01*
X023364Y002563D01*
X023334Y002525D01*
X023302Y002489D01*
X023267Y002456D01*
X023229Y002426D01*
X023189Y002399D01*
X023147Y002376D01*
X023103Y002356D01*
X023058Y002339D01*
X023012Y002327D01*
X022964Y002318D01*
X022916Y002313D01*
X022868Y002312D01*
X022820Y002315D01*
X022772Y002322D01*
X022725Y002333D01*
X022679Y002347D01*
X022634Y002365D01*
X022591Y002387D01*
X022550Y002412D01*
X022512Y002441D01*
X022475Y002473D01*
X022441Y002507D01*
X022411Y002544D01*
X022383Y002583D01*
X022358Y002625D01*
X022338Y002669D01*
X022320Y002714D01*
X022307Y002760D01*
X022297Y002807D01*
X022291Y002855D01*
X022289Y002903D01*
X022289Y026132D02*
X022291Y026180D01*
X022297Y026228D01*
X022307Y026275D01*
X022320Y026321D01*
X022338Y026366D01*
X022358Y026410D01*
X022383Y026452D01*
X022411Y026491D01*
X022441Y026528D01*
X022475Y026562D01*
X022512Y026594D01*
X022550Y026623D01*
X022591Y026648D01*
X022634Y026670D01*
X022679Y026688D01*
X022725Y026702D01*
X022772Y026713D01*
X022820Y026720D01*
X022868Y026723D01*
X022916Y026722D01*
X022964Y026717D01*
X023012Y026708D01*
X023058Y026696D01*
X023103Y026679D01*
X023147Y026659D01*
X023189Y026636D01*
X023229Y026609D01*
X023267Y026579D01*
X023302Y026546D01*
X023334Y026510D01*
X023364Y026472D01*
X023390Y026431D01*
X023412Y026388D01*
X023432Y026344D01*
X023447Y026299D01*
X023459Y026252D01*
X023467Y026204D01*
X023471Y026156D01*
X023471Y026108D01*
X023467Y026060D01*
X023459Y026012D01*
X023447Y025965D01*
X023432Y025920D01*
X023412Y025876D01*
X023390Y025833D01*
X023364Y025792D01*
X023334Y025754D01*
X023302Y025718D01*
X023267Y025685D01*
X023229Y025655D01*
X023189Y025628D01*
X023147Y025605D01*
X023103Y025585D01*
X023058Y025568D01*
X023012Y025556D01*
X022964Y025547D01*
X022916Y025542D01*
X022868Y025541D01*
X022820Y025544D01*
X022772Y025551D01*
X022725Y025562D01*
X022679Y025576D01*
X022634Y025594D01*
X022591Y025616D01*
X022550Y025641D01*
X022512Y025670D01*
X022475Y025702D01*
X022441Y025736D01*
X022411Y025773D01*
X022383Y025812D01*
X022358Y025854D01*
X022338Y025898D01*
X022320Y025943D01*
X022307Y025989D01*
X022297Y026036D01*
X022291Y026084D01*
X022289Y026132D01*
X002998Y026132D02*
X003000Y026180D01*
X003006Y026228D01*
X003016Y026275D01*
X003029Y026321D01*
X003047Y026366D01*
X003067Y026410D01*
X003092Y026452D01*
X003120Y026491D01*
X003150Y026528D01*
X003184Y026562D01*
X003221Y026594D01*
X003259Y026623D01*
X003300Y026648D01*
X003343Y026670D01*
X003388Y026688D01*
X003434Y026702D01*
X003481Y026713D01*
X003529Y026720D01*
X003577Y026723D01*
X003625Y026722D01*
X003673Y026717D01*
X003721Y026708D01*
X003767Y026696D01*
X003812Y026679D01*
X003856Y026659D01*
X003898Y026636D01*
X003938Y026609D01*
X003976Y026579D01*
X004011Y026546D01*
X004043Y026510D01*
X004073Y026472D01*
X004099Y026431D01*
X004121Y026388D01*
X004141Y026344D01*
X004156Y026299D01*
X004168Y026252D01*
X004176Y026204D01*
X004180Y026156D01*
X004180Y026108D01*
X004176Y026060D01*
X004168Y026012D01*
X004156Y025965D01*
X004141Y025920D01*
X004121Y025876D01*
X004099Y025833D01*
X004073Y025792D01*
X004043Y025754D01*
X004011Y025718D01*
X003976Y025685D01*
X003938Y025655D01*
X003898Y025628D01*
X003856Y025605D01*
X003812Y025585D01*
X003767Y025568D01*
X003721Y025556D01*
X003673Y025547D01*
X003625Y025542D01*
X003577Y025541D01*
X003529Y025544D01*
X003481Y025551D01*
X003434Y025562D01*
X003388Y025576D01*
X003343Y025594D01*
X003300Y025616D01*
X003259Y025641D01*
X003221Y025670D01*
X003184Y025702D01*
X003150Y025736D01*
X003120Y025773D01*
X003092Y025812D01*
X003067Y025854D01*
X003047Y025898D01*
X003029Y025943D01*
X003016Y025989D01*
X003006Y026036D01*
X003000Y026084D01*
X002998Y026132D01*
M02*
