G75*
G70*
%OFA0B0*%
%FSLAX24Y24*%
%IPPOS*%
%LPD*%
%AMOC8*
5,1,8,0,0,1.08239X$1,22.5*
%
%ADD10C,0.0030*%
%ADD11C,0.0160*%
%ADD12C,0.0060*%
D10*
X006254Y005286D02*
X006315Y005286D01*
X006557Y005528D01*
X006618Y005528D01*
X006618Y005286D01*
X006557Y005648D02*
X006497Y005648D01*
X006436Y005709D01*
X006436Y005830D01*
X006375Y005891D01*
X006315Y005891D01*
X006254Y005830D01*
X006254Y005709D01*
X006315Y005648D01*
X006375Y005648D01*
X006436Y005709D01*
X006436Y005830D02*
X006497Y005891D01*
X006557Y005891D01*
X006618Y005830D01*
X006618Y005709D01*
X006557Y005648D01*
X006618Y006011D02*
X006254Y006011D01*
X006254Y006253D01*
X006315Y006373D02*
X006557Y006616D01*
X006315Y006616D01*
X006254Y006555D01*
X006254Y006434D01*
X006315Y006373D01*
X006557Y006373D01*
X006618Y006434D01*
X006618Y006555D01*
X006557Y006616D01*
X006618Y006736D02*
X006436Y006736D01*
X006497Y006857D01*
X006497Y006918D01*
X006436Y006978D01*
X006315Y006978D01*
X006254Y006918D01*
X006254Y006796D01*
X006315Y006736D01*
X006618Y006736D02*
X006618Y006978D01*
X010331Y010278D02*
X010391Y010217D01*
X010513Y010217D01*
X010573Y010278D01*
X010573Y010339D01*
X010513Y010399D01*
X010391Y010399D01*
X010331Y010339D01*
X010331Y010278D01*
X010391Y010399D02*
X010331Y010460D01*
X010331Y010521D01*
X010391Y010581D01*
X010513Y010581D01*
X010573Y010521D01*
X010573Y010460D01*
X010513Y010399D01*
X010693Y010339D02*
X010693Y010278D01*
X010754Y010217D01*
X010875Y010217D01*
X010936Y010278D01*
X010936Y010339D01*
X010875Y010399D01*
X010754Y010399D01*
X010693Y010339D01*
X010754Y010399D02*
X010693Y010460D01*
X010693Y010521D01*
X010754Y010581D01*
X010875Y010581D01*
X010936Y010521D01*
X010936Y010460D01*
X010875Y010399D01*
X011055Y010399D02*
X011055Y010217D01*
X011237Y010217D01*
X011298Y010278D01*
X011237Y010339D01*
X011055Y010339D01*
X011055Y010399D02*
X011116Y010460D01*
X011237Y010460D01*
X011418Y010460D02*
X011418Y010157D01*
X011479Y010096D01*
X011539Y010096D01*
X011600Y010217D02*
X011418Y010217D01*
X011600Y010217D02*
X011661Y010278D01*
X011661Y010399D01*
X011600Y010460D01*
X011418Y010460D01*
X011780Y010399D02*
X011780Y010339D01*
X012023Y010339D01*
X012023Y010399D02*
X011962Y010460D01*
X011841Y010460D01*
X011780Y010399D01*
X011841Y010217D02*
X011962Y010217D01*
X012023Y010278D01*
X012023Y010399D01*
X012143Y010581D02*
X012143Y010217D01*
X012386Y010217D02*
X012386Y010581D01*
X012264Y010460D01*
X012143Y010581D01*
X015595Y007631D02*
X015595Y007389D01*
X015838Y007631D01*
X015899Y007631D01*
X015959Y007571D01*
X015959Y007449D01*
X015899Y007389D01*
X015899Y007269D02*
X015838Y007269D01*
X015777Y007208D01*
X015717Y007269D01*
X015656Y007269D01*
X015595Y007208D01*
X015595Y007087D01*
X015656Y007026D01*
X015595Y006906D02*
X015595Y006664D01*
X015838Y006906D01*
X015899Y006906D01*
X015959Y006846D01*
X015959Y006724D01*
X015899Y006664D01*
X015959Y006544D02*
X015595Y006301D01*
X015595Y006181D02*
X015838Y006181D01*
X015959Y006060D01*
X015838Y005939D01*
X015595Y005939D01*
X015595Y005819D02*
X015959Y005819D01*
X015838Y005698D01*
X015959Y005576D01*
X015595Y005576D01*
X015777Y005939D02*
X015777Y006181D01*
X015959Y006301D02*
X015595Y006544D01*
X015899Y007026D02*
X015959Y007087D01*
X015959Y007208D01*
X015899Y007269D01*
X015777Y007208D02*
X015777Y007147D01*
X016634Y008822D02*
X016573Y008882D01*
X016573Y008943D01*
X016634Y009004D01*
X016694Y009004D01*
X016755Y008943D01*
X016755Y008882D01*
X016694Y008822D01*
X016634Y008822D01*
X020611Y018415D02*
X020551Y018476D01*
X020551Y018779D01*
X020733Y018779D01*
X020793Y018718D01*
X020793Y018597D01*
X020733Y018536D01*
X020551Y018536D01*
X020431Y018536D02*
X020309Y018536D01*
X020370Y018536D02*
X020370Y018779D01*
X020431Y018779D01*
X020370Y018900D02*
X020370Y018961D01*
X020189Y018779D02*
X020068Y018779D01*
X020128Y018840D02*
X020128Y018597D01*
X020068Y018536D01*
X019947Y018536D02*
X019947Y018900D01*
X019887Y018779D02*
X019765Y018779D01*
X019705Y018718D01*
X019705Y018536D01*
X019585Y018597D02*
X019524Y018536D01*
X019342Y018536D01*
X019342Y018779D01*
X019222Y018779D02*
X019040Y018779D01*
X018980Y018718D01*
X018980Y018597D01*
X019040Y018536D01*
X019222Y018536D01*
X019222Y018900D01*
X018860Y018597D02*
X018799Y018597D01*
X018799Y018536D01*
X018860Y018536D01*
X018860Y018597D01*
X018679Y018597D02*
X018618Y018536D01*
X018436Y018536D01*
X018316Y018597D02*
X018256Y018536D01*
X018134Y018536D01*
X018074Y018597D01*
X018074Y018718D01*
X018134Y018779D01*
X018256Y018779D01*
X018316Y018718D01*
X018316Y018597D01*
X018436Y018779D02*
X018618Y018779D01*
X018679Y018718D01*
X018679Y018597D01*
X017954Y018536D02*
X017954Y018779D01*
X017893Y018779D01*
X017832Y018718D01*
X017772Y018779D01*
X017711Y018718D01*
X017711Y018536D01*
X017591Y018536D02*
X017349Y018900D01*
X017168Y018779D02*
X017229Y018718D01*
X017229Y018597D01*
X017168Y018536D01*
X016986Y018536D01*
X016986Y018900D01*
X016866Y018900D02*
X016866Y018536D01*
X016866Y018658D02*
X016684Y018779D01*
X016564Y018718D02*
X016564Y018597D01*
X016504Y018536D01*
X016382Y018536D01*
X016322Y018597D01*
X016322Y018718D01*
X016382Y018779D01*
X016504Y018779D01*
X016564Y018718D01*
X016684Y018536D02*
X016866Y018658D01*
X016986Y018779D02*
X017168Y018779D01*
X017832Y018718D02*
X017832Y018536D01*
X016202Y018536D02*
X016202Y018779D01*
X016202Y018658D02*
X016080Y018779D01*
X016020Y018779D01*
X015900Y018718D02*
X015900Y018597D01*
X015839Y018536D01*
X015718Y018536D01*
X015657Y018597D01*
X015657Y018718D01*
X015718Y018779D01*
X015839Y018779D01*
X015900Y018718D01*
X015537Y018779D02*
X015355Y018779D01*
X015295Y018718D01*
X015295Y018597D01*
X015355Y018536D01*
X015537Y018536D01*
X015537Y018900D01*
X015175Y018900D02*
X015175Y018536D01*
X015175Y018658D02*
X014993Y018779D01*
X014873Y018718D02*
X014873Y018597D01*
X014812Y018536D01*
X014691Y018536D01*
X014630Y018597D01*
X014630Y018718D01*
X014691Y018779D01*
X014812Y018779D01*
X014873Y018718D01*
X014993Y018536D02*
X015175Y018658D01*
X014510Y018779D02*
X014389Y018536D01*
X014267Y018779D01*
X014148Y018536D02*
X013905Y018900D01*
X014017Y019868D02*
X014017Y020111D01*
X013896Y020111D02*
X013835Y020111D01*
X013896Y020111D02*
X014017Y019989D01*
X014137Y019989D02*
X014379Y019989D01*
X014379Y019929D02*
X014379Y020050D01*
X014319Y020111D01*
X014198Y020111D01*
X014137Y020050D01*
X014137Y019989D01*
X014198Y019868D02*
X014319Y019868D01*
X014379Y019929D01*
X014499Y020111D02*
X014621Y019868D01*
X014742Y020111D01*
X014923Y020111D02*
X014923Y019868D01*
X014984Y019868D02*
X014862Y019868D01*
X015103Y019868D02*
X015103Y020050D01*
X015164Y020111D01*
X015346Y020111D01*
X015346Y019868D01*
X015466Y019929D02*
X015466Y020232D01*
X015709Y020232D02*
X015709Y019929D01*
X015648Y019868D01*
X015527Y019868D01*
X015466Y019929D01*
X014984Y020111D02*
X014923Y020111D01*
X014923Y020232D02*
X014923Y020293D01*
X014926Y020999D02*
X014926Y021060D01*
X014866Y021060D01*
X014866Y020999D01*
X014926Y020999D01*
X015046Y020999D02*
X015228Y020999D01*
X015289Y021060D01*
X015289Y021181D01*
X015228Y021242D01*
X015046Y021242D01*
X014926Y021242D02*
X014926Y021181D01*
X014866Y021181D01*
X014866Y021242D01*
X014926Y021242D01*
X014745Y021302D02*
X014684Y021363D01*
X014563Y021363D01*
X014502Y021302D01*
X014745Y021060D01*
X014684Y020999D01*
X014563Y020999D01*
X014502Y021060D01*
X014502Y021302D01*
X014745Y021302D02*
X014745Y021060D01*
X015409Y020999D02*
X015591Y020999D01*
X015651Y021060D01*
X015651Y021181D01*
X015591Y021242D01*
X015409Y021242D01*
X013715Y020050D02*
X013654Y020111D01*
X013472Y020111D01*
X013533Y019989D02*
X013654Y019989D01*
X013715Y020050D01*
X013715Y019868D02*
X013533Y019868D01*
X013472Y019929D01*
X013533Y019989D01*
X013352Y019929D02*
X013292Y019989D01*
X013110Y019989D01*
X013110Y020050D02*
X013110Y019868D01*
X013292Y019868D01*
X013352Y019929D01*
X013292Y020111D02*
X013170Y020111D01*
X013110Y020050D01*
X012990Y019868D02*
X012869Y019868D01*
X012929Y019868D02*
X012929Y020232D01*
X012990Y020232D01*
X012386Y020232D02*
X012386Y019868D01*
X012143Y019868D01*
X012023Y019868D02*
X012023Y020232D01*
X011781Y020232D01*
X011661Y020232D02*
X011479Y020232D01*
X011418Y020171D01*
X011418Y019929D01*
X011479Y019868D01*
X011661Y019868D01*
X011661Y020232D01*
X011902Y020050D02*
X012023Y020050D01*
X012023Y019868D02*
X011781Y019868D01*
X010936Y019929D02*
X010936Y020050D01*
X010875Y020111D01*
X010693Y020111D01*
X010573Y020111D02*
X010513Y020111D01*
X010513Y019868D01*
X010573Y019868D02*
X010452Y019868D01*
X010332Y019868D02*
X010150Y019868D01*
X010089Y019929D01*
X010150Y019989D01*
X010271Y019989D01*
X010332Y020050D01*
X010271Y020111D01*
X010089Y020111D01*
X009969Y020111D02*
X009969Y019747D01*
X009969Y019868D02*
X009787Y019868D01*
X009727Y019929D01*
X009727Y020050D01*
X009787Y020111D01*
X009969Y020111D01*
X009607Y020232D02*
X009546Y020232D01*
X009546Y019868D01*
X009486Y019868D02*
X009607Y019868D01*
X009365Y019929D02*
X009305Y019989D01*
X009123Y019989D01*
X009123Y020050D02*
X009123Y019868D01*
X009305Y019868D01*
X009365Y019929D01*
X009305Y020111D02*
X009183Y020111D01*
X009123Y020050D01*
X009003Y020111D02*
X009003Y019929D01*
X008942Y019868D01*
X008760Y019868D01*
X008760Y019808D02*
X008760Y020111D01*
X008760Y019808D02*
X008821Y019747D01*
X008881Y019747D01*
X008278Y019868D02*
X008096Y019868D01*
X008035Y019929D01*
X008035Y020050D01*
X008096Y020111D01*
X008278Y020111D01*
X008278Y020232D02*
X008278Y019868D01*
X007915Y019929D02*
X007855Y019868D01*
X007733Y019868D01*
X007673Y019929D01*
X007673Y020050D01*
X007733Y020111D01*
X007855Y020111D01*
X007915Y020050D01*
X007915Y019929D01*
X007553Y019929D02*
X007492Y019989D01*
X007310Y019989D01*
X007310Y020050D02*
X007310Y019868D01*
X007492Y019868D01*
X007553Y019929D01*
X007492Y020111D02*
X007371Y020111D01*
X007310Y020050D01*
X007190Y019989D02*
X007069Y020111D01*
X007008Y020111D01*
X006888Y020050D02*
X006828Y020111D01*
X006646Y020111D01*
X006646Y020232D02*
X006646Y019868D01*
X006828Y019868D01*
X006888Y019929D01*
X006888Y020050D01*
X007190Y020111D02*
X007190Y019868D01*
X008396Y020917D02*
X008456Y020857D01*
X008578Y020857D01*
X008638Y020917D01*
X008396Y021160D01*
X008396Y020917D01*
X008396Y021160D02*
X008456Y021221D01*
X008578Y021221D01*
X008638Y021160D01*
X008638Y020917D01*
X008759Y020917D02*
X008759Y020857D01*
X008819Y020857D01*
X008819Y020917D01*
X008759Y020917D01*
X008759Y021039D02*
X008819Y021039D01*
X008819Y021099D01*
X008759Y021099D01*
X008759Y021039D01*
X008939Y021099D02*
X009121Y021099D01*
X009182Y021039D01*
X009182Y020917D01*
X009121Y020857D01*
X008939Y020857D01*
X009302Y020857D02*
X009484Y020857D01*
X009544Y020917D01*
X009544Y021039D01*
X009484Y021099D01*
X009302Y021099D01*
X010513Y020293D02*
X010513Y020232D01*
X010693Y020232D02*
X010693Y019868D01*
X010875Y019868D01*
X010936Y019929D01*
X009829Y022955D02*
X009647Y022955D01*
X009528Y023016D02*
X009467Y023076D01*
X009285Y023076D01*
X009285Y023137D02*
X009285Y022955D01*
X009467Y022955D01*
X009528Y023016D01*
X009467Y023198D02*
X009346Y023198D01*
X009285Y023137D01*
X009165Y023137D02*
X009165Y023198D01*
X009104Y023198D01*
X009104Y023137D01*
X009165Y023137D01*
X009165Y023016D02*
X009165Y022955D01*
X009104Y022955D01*
X009104Y023016D01*
X009165Y023016D01*
X008984Y023016D02*
X008923Y022955D01*
X008802Y022955D01*
X008741Y023016D01*
X008741Y023258D01*
X008984Y023016D01*
X008984Y023258D01*
X008923Y023319D01*
X008802Y023319D01*
X008741Y023258D01*
X009647Y023198D02*
X009829Y023198D01*
X009890Y023137D01*
X009890Y023016D01*
X009829Y022955D01*
X014248Y023934D02*
X014309Y023874D01*
X014430Y023874D01*
X014490Y023934D01*
X014248Y024177D01*
X014248Y023934D01*
X014490Y023934D02*
X014490Y024177D01*
X014430Y024238D01*
X014309Y024238D01*
X014248Y024177D01*
X014611Y024116D02*
X014611Y024056D01*
X014672Y024056D01*
X014672Y024116D01*
X014611Y024116D01*
X014611Y023934D02*
X014611Y023874D01*
X014672Y023874D01*
X014672Y023934D01*
X014611Y023934D01*
X014792Y023874D02*
X014974Y023874D01*
X015034Y023934D01*
X014974Y023995D01*
X014792Y023995D01*
X014792Y024056D02*
X014792Y023874D01*
X014792Y024056D02*
X014852Y024116D01*
X014974Y024116D01*
X015154Y024116D02*
X015336Y024116D01*
X015397Y024056D01*
X015397Y023934D01*
X015336Y023874D01*
X015154Y023874D01*
X017791Y023174D02*
X017791Y023053D01*
X017851Y022992D01*
X018033Y022992D01*
X018153Y022992D02*
X018153Y023174D01*
X018214Y023235D01*
X018396Y023235D01*
X018396Y022992D01*
X018516Y023053D02*
X018576Y022992D01*
X018758Y022992D01*
X018758Y022871D02*
X018758Y023235D01*
X018576Y023235D01*
X018516Y023174D01*
X018516Y023053D01*
X018520Y023334D02*
X018702Y023334D01*
X018763Y023395D01*
X018763Y023516D01*
X018702Y023577D01*
X018520Y023577D01*
X018340Y023577D02*
X018218Y023577D01*
X018158Y023516D01*
X018158Y023334D01*
X018340Y023334D01*
X018400Y023395D01*
X018340Y023456D01*
X018158Y023456D01*
X018038Y023516D02*
X018038Y023577D01*
X017977Y023577D01*
X017977Y023516D01*
X018038Y023516D01*
X018038Y023395D02*
X018038Y023334D01*
X017977Y023334D01*
X017977Y023395D01*
X018038Y023395D01*
X018033Y023235D02*
X017851Y023235D01*
X017791Y023174D01*
X018033Y023235D02*
X018033Y022871D01*
X018017Y022070D02*
X018017Y022010D01*
X018078Y022010D01*
X018078Y022070D01*
X018017Y022070D01*
X018198Y022070D02*
X018380Y022070D01*
X018440Y022010D01*
X018440Y021888D01*
X018380Y021828D01*
X018198Y021828D01*
X018078Y021828D02*
X018078Y021888D01*
X018017Y021888D01*
X018017Y021828D01*
X018078Y021828D01*
X018045Y021707D02*
X017863Y021707D01*
X017802Y021646D01*
X017802Y021464D01*
X018045Y021464D02*
X018045Y021707D01*
X018165Y021646D02*
X018165Y021525D01*
X018225Y021464D01*
X018407Y021464D01*
X018527Y021464D02*
X018527Y021646D01*
X018588Y021707D01*
X018770Y021707D01*
X018770Y021464D01*
X018742Y021828D02*
X018560Y021828D01*
X018742Y021828D02*
X018803Y021888D01*
X018803Y022010D01*
X018742Y022070D01*
X018560Y022070D01*
X018407Y021707D02*
X018225Y021707D01*
X018165Y021646D01*
X018407Y021707D02*
X018407Y021343D01*
X019585Y018779D02*
X019585Y018597D01*
X019887Y018779D02*
X019947Y018718D01*
X020611Y018415D02*
X020672Y018415D01*
X004332Y021293D02*
X004332Y021535D01*
X004150Y021535D01*
X004090Y021474D01*
X004090Y021293D01*
X003970Y021293D02*
X003788Y021293D01*
X003727Y021353D01*
X003727Y021474D01*
X003788Y021535D01*
X003970Y021535D01*
X003970Y021171D01*
X003607Y021293D02*
X003607Y021535D01*
X003425Y021535D01*
X003365Y021474D01*
X003365Y021293D01*
X003504Y021666D02*
X003564Y021666D01*
X003564Y021726D01*
X003504Y021726D01*
X003504Y021666D01*
X003684Y021666D02*
X003866Y021666D01*
X003927Y021726D01*
X003927Y021848D01*
X003866Y021908D01*
X003684Y021908D01*
X003564Y021908D02*
X003564Y021848D01*
X003504Y021848D01*
X003504Y021908D01*
X003564Y021908D01*
X003648Y022373D02*
X003648Y022737D01*
X003466Y022737D01*
X003406Y022676D01*
X003406Y022555D01*
X003466Y022494D01*
X003648Y022494D01*
X003768Y022494D02*
X003768Y022676D01*
X003829Y022737D01*
X004011Y022737D01*
X004011Y022494D01*
X004131Y022555D02*
X004191Y022494D01*
X004373Y022494D01*
X004373Y022373D02*
X004373Y022737D01*
X004191Y022737D01*
X004131Y022676D01*
X004131Y022555D01*
X004145Y022867D02*
X004327Y022867D01*
X004387Y022928D01*
X004387Y023049D01*
X004327Y023110D01*
X004145Y023110D01*
X003964Y023110D02*
X003843Y023110D01*
X003782Y023049D01*
X003782Y022867D01*
X003964Y022867D01*
X004025Y022928D01*
X003964Y022989D01*
X003782Y022989D01*
X003663Y023049D02*
X003663Y023110D01*
X003602Y023110D01*
X003602Y023049D01*
X003663Y023049D01*
X003663Y022928D02*
X003602Y022928D01*
X003602Y022867D01*
X003663Y022867D01*
X003663Y022928D01*
X004047Y021908D02*
X004229Y021908D01*
X004289Y021848D01*
X004289Y021726D01*
X004229Y021666D01*
X004047Y021666D01*
D11*
X009946Y004724D02*
X010246Y004408D01*
X010541Y004712D01*
X010541Y004724D01*
X009950Y004724D01*
X009938Y004373D02*
X010545Y004373D01*
D12*
X009895Y008247D02*
X009788Y008247D01*
X009682Y008354D01*
X009682Y008461D01*
X009788Y008567D01*
X009895Y008567D01*
X010002Y008461D01*
X010002Y008354D01*
X009895Y008247D01*
X007472Y007523D02*
X007472Y007416D01*
X007365Y007310D01*
X007258Y007310D01*
X007151Y007416D01*
X007151Y007523D01*
X007258Y007630D01*
X007365Y007630D01*
X007472Y007523D01*
M02*
