G75*
G70*
%OFA0B0*%
%FSLAX24Y24*%
%IPPOS*%
%LPD*%
%AMOC8*
5,1,8,0,0,1.08239X$1,22.5*
%
%ADD10C,0.1261*%
%ADD11C,0.0277*%
%ADD12R,0.0580X0.0300*%
%ADD13R,0.0300X0.0580*%
%ADD14R,0.0671X0.0592*%
%ADD15C,0.0830*%
%ADD16C,0.0671*%
%ADD17R,0.0474X0.0631*%
%ADD18OC8,0.0680*%
%ADD19R,0.0592X0.0671*%
%ADD20R,0.0946X0.0316*%
%ADD21R,0.1025X0.1025*%
%ADD22C,0.0905*%
%ADD23C,0.0749*%
%ADD24R,0.0671X0.0671*%
%ADD25C,0.0600*%
D10*
X001887Y003267D03*
X001887Y014291D03*
X001887Y026496D03*
X021178Y026496D03*
X021178Y014291D03*
X021178Y003267D03*
D11*
X021206Y016086D03*
X021706Y016086D03*
X022206Y016086D03*
X020706Y016086D03*
X020206Y016086D03*
X019706Y016086D03*
X019206Y016086D03*
X018706Y016086D03*
X018206Y016086D03*
X017706Y016086D03*
X017206Y016086D03*
X016706Y016086D03*
X016206Y016086D03*
X015706Y016086D03*
X015206Y016086D03*
X014706Y016086D03*
X014206Y016086D03*
X013706Y016086D03*
X013206Y016086D03*
X012706Y016086D03*
X012206Y016086D03*
X011706Y016086D03*
X011206Y016086D03*
X010706Y016086D03*
X010206Y016086D03*
X009706Y016086D03*
X009206Y016086D03*
X008706Y016086D03*
X008206Y016086D03*
X007706Y016086D03*
X007206Y016086D03*
X006706Y016086D03*
X006206Y016086D03*
X005706Y016086D03*
X005206Y016086D03*
X004706Y016086D03*
X004206Y016086D03*
X003706Y016086D03*
X003206Y016086D03*
X002706Y016086D03*
X002206Y016086D03*
X001706Y016086D03*
X001206Y016086D03*
D12*
X009714Y011280D03*
X009714Y010965D03*
X009714Y010650D03*
X009714Y010335D03*
X009714Y010020D03*
X009714Y009705D03*
X009714Y009390D03*
X009714Y009076D03*
X013094Y009076D03*
X013094Y009390D03*
X013094Y009705D03*
X013094Y010020D03*
X013094Y010335D03*
X013094Y010650D03*
X013094Y010965D03*
X013094Y011280D03*
D13*
X012507Y011868D03*
X012192Y011868D03*
X011877Y011868D03*
X011562Y011868D03*
X011247Y011868D03*
X010932Y011868D03*
X010617Y011868D03*
X010302Y011868D03*
X010302Y008488D03*
X010617Y008488D03*
X010932Y008488D03*
X011247Y008488D03*
X011562Y008488D03*
X011877Y008488D03*
X012192Y008488D03*
X012507Y008488D03*
D14*
X009206Y004960D03*
X009206Y004212D03*
X002457Y005307D03*
X002457Y006055D03*
X006454Y016909D03*
X006454Y017657D03*
X007517Y017657D03*
X007517Y016909D03*
X008580Y016909D03*
X008580Y017657D03*
X009643Y017657D03*
X009643Y016909D03*
X010706Y016909D03*
X010706Y017657D03*
X011769Y017657D03*
X011769Y016909D03*
X012831Y016909D03*
X012831Y017657D03*
X013894Y017657D03*
X013894Y016909D03*
X014957Y016909D03*
X014957Y017657D03*
X016020Y017657D03*
X016020Y016909D03*
X017083Y016909D03*
X017083Y017657D03*
X018146Y017657D03*
X018146Y016909D03*
X019209Y016909D03*
X019209Y017657D03*
X020272Y017657D03*
X020272Y016909D03*
X019898Y019421D03*
X019898Y020169D03*
X018144Y020222D03*
X018144Y020970D03*
X014911Y022395D03*
X014911Y023143D03*
X013698Y023147D03*
X013698Y023895D03*
X013894Y021200D03*
X013894Y020452D03*
X008186Y023149D03*
X008186Y023897D03*
X007792Y021200D03*
X007792Y020452D03*
X004879Y020059D03*
X004879Y019311D03*
X003345Y019311D03*
X003345Y020059D03*
D15*
X001493Y019586D03*
X001493Y020586D03*
X001493Y021586D03*
X001493Y022586D03*
X001493Y023586D03*
X001493Y024586D03*
X003898Y026889D03*
X004898Y026889D03*
X005898Y026889D03*
X006898Y026889D03*
X007898Y026889D03*
X008898Y026889D03*
X009898Y026889D03*
X010898Y026889D03*
X011898Y026888D03*
X012898Y026888D03*
X013898Y026888D03*
X014898Y026888D03*
X015898Y026888D03*
X016898Y026888D03*
X017898Y026888D03*
X018898Y026888D03*
X021572Y024586D03*
X021572Y023586D03*
X021572Y022586D03*
X021572Y021586D03*
X021572Y020586D03*
X021572Y019586D03*
X021572Y018586D03*
X021572Y017586D03*
X019729Y015078D03*
X018729Y015078D03*
X017729Y015078D03*
X016729Y015078D03*
X015729Y015078D03*
X014729Y015078D03*
X013729Y015078D03*
X012729Y015078D03*
X013206Y013897D03*
X014206Y013897D03*
X015206Y013897D03*
X012206Y013897D03*
X011206Y013897D03*
X010206Y013897D03*
X009206Y013897D03*
X008206Y013897D03*
X008705Y015078D03*
X009705Y015078D03*
X010705Y015078D03*
X007705Y015078D03*
X006705Y015078D03*
X005705Y015078D03*
X004705Y015078D03*
X003705Y015078D03*
X003456Y012836D03*
X004456Y012836D03*
X004456Y011836D03*
X004456Y010836D03*
X004456Y009836D03*
X004456Y008836D03*
X004456Y007836D03*
X003456Y007836D03*
X003456Y008836D03*
X003456Y009836D03*
X003456Y010836D03*
X003456Y011836D03*
X002456Y011836D03*
X002456Y010836D03*
X002456Y009836D03*
X002456Y008836D03*
X002456Y007836D03*
X001456Y007836D03*
X001456Y008836D03*
X001456Y009836D03*
X001456Y010836D03*
X001456Y011836D03*
X001456Y012836D03*
X002456Y012836D03*
X005456Y011836D03*
X005456Y010836D03*
X005456Y009836D03*
X005456Y008836D03*
X005456Y007836D03*
X001493Y017586D03*
X001493Y018586D03*
X016710Y004338D03*
X017710Y004338D03*
X017717Y003330D03*
X016717Y003330D03*
X018717Y003330D03*
X019717Y003330D03*
X019710Y004338D03*
X019706Y005336D03*
X019706Y006336D03*
X019706Y007336D03*
X019706Y008336D03*
X019706Y009336D03*
X019706Y010336D03*
X019706Y011336D03*
X019706Y012336D03*
X018706Y012336D03*
X018706Y011336D03*
X018706Y010336D03*
X018706Y009336D03*
X018706Y008336D03*
X018706Y007336D03*
X018706Y006336D03*
X018706Y005336D03*
X018710Y004338D03*
X020706Y005336D03*
X021706Y005305D03*
X021706Y006305D03*
X021706Y007305D03*
X021706Y008305D03*
X021706Y009305D03*
X021706Y010305D03*
X021706Y011305D03*
X021706Y012305D03*
X020706Y012336D03*
X020706Y011336D03*
X020706Y010336D03*
X020706Y009336D03*
X020706Y008336D03*
X020706Y007336D03*
X020706Y006336D03*
D16*
X013442Y018749D03*
X013461Y019449D03*
X014446Y019449D03*
X015430Y019449D03*
X012477Y019449D03*
X012442Y018745D03*
X011442Y018745D03*
X011493Y019449D03*
X010391Y019449D03*
X010442Y018745D03*
X009442Y018745D03*
X009406Y019449D03*
X008422Y019449D03*
X008442Y018745D03*
X007438Y019449D03*
X006454Y019449D03*
X008442Y024749D03*
X008422Y025452D03*
X009406Y025452D03*
X009442Y024749D03*
X010442Y024749D03*
X010391Y025452D03*
X011493Y025452D03*
X011442Y024749D03*
X012442Y024749D03*
X012477Y025452D03*
X013461Y025452D03*
X013442Y024749D03*
X014446Y025452D03*
X015430Y025452D03*
X007438Y025452D03*
X006454Y025452D03*
D17*
X005098Y023501D03*
X004350Y023501D03*
X004724Y022635D03*
X004726Y021652D03*
X004352Y020786D03*
X005100Y020786D03*
X003350Y020841D03*
X002602Y020841D03*
X002976Y021707D03*
X002994Y022644D03*
X003368Y023511D03*
X002620Y023511D03*
X016735Y023545D03*
X017483Y023545D03*
X017109Y022679D03*
X017085Y021923D03*
X016711Y021057D03*
X017459Y021057D03*
X019134Y021015D03*
X019882Y021015D03*
X019508Y021881D03*
X019516Y022623D03*
X019890Y023489D03*
X019142Y023489D03*
D18*
X016203Y013897D03*
X015562Y012141D03*
X015562Y011141D03*
X015562Y010141D03*
X014562Y010141D03*
X014562Y011141D03*
X014562Y012141D03*
D19*
X009536Y007096D03*
X008788Y007096D03*
X007950Y009487D03*
X007202Y009487D03*
X007221Y011385D03*
X007969Y011385D03*
X008448Y012273D03*
X009196Y012273D03*
X009331Y002836D03*
X010080Y002836D03*
D20*
X007479Y005586D03*
X007479Y006086D03*
X007479Y006586D03*
X007479Y007086D03*
X005432Y007086D03*
X005432Y006586D03*
X005432Y006086D03*
X005432Y005586D03*
X014750Y005539D03*
X014750Y005039D03*
X014750Y006039D03*
X014750Y006539D03*
X014750Y007039D03*
X014750Y007539D03*
X014750Y008039D03*
X014750Y008539D03*
X016797Y008539D03*
X016797Y008039D03*
X016797Y007539D03*
X016797Y007039D03*
X016797Y006539D03*
X016797Y006039D03*
X016797Y005539D03*
X016797Y005039D03*
D21*
X003879Y004786D03*
X003879Y006755D03*
D22*
X005206Y004499D02*
X005206Y003674D01*
X008206Y003674D02*
X008206Y004499D01*
D23*
X007394Y004047D03*
X006017Y004047D03*
X011328Y004047D03*
X012706Y004047D03*
X014083Y004047D03*
D24*
X010206Y003897D03*
X010206Y005275D03*
D25*
X008664Y009487D03*
X008664Y011387D03*
M02*
