G75*
G70*
%OFA0B0*%
%FSLAX24Y24*%
%IPPOS*%
%LPD*%
%AMOC8*
5,1,8,0,0,1.08239X$1,22.5*
%
%ADD10C,0.0079*%
%ADD11C,0.0030*%
%ADD12C,0.0060*%
D10*
X011641Y004009D02*
X012247Y004009D01*
X011948Y004045D02*
X012243Y004348D01*
X012243Y004360D01*
X011653Y004360D01*
X011649Y004360D02*
X011948Y004045D01*
D11*
X008017Y004922D02*
X007956Y004922D01*
X008017Y004922D02*
X008260Y005164D01*
X008320Y005164D01*
X008320Y004922D01*
X008260Y005284D02*
X008199Y005284D01*
X008138Y005345D01*
X008138Y005466D01*
X008078Y005527D01*
X008017Y005527D01*
X007956Y005466D01*
X007956Y005345D01*
X008017Y005284D01*
X008078Y005284D01*
X008138Y005345D01*
X008138Y005466D02*
X008199Y005527D01*
X008260Y005527D01*
X008320Y005466D01*
X008320Y005345D01*
X008260Y005284D01*
X008320Y005647D02*
X007956Y005647D01*
X007956Y005889D01*
X008017Y006009D02*
X008260Y006252D01*
X008017Y006252D01*
X007956Y006191D01*
X007956Y006070D01*
X008017Y006009D01*
X008260Y006009D01*
X008320Y006070D01*
X008320Y006191D01*
X008260Y006252D01*
X008320Y006372D02*
X008138Y006372D01*
X008199Y006493D01*
X008199Y006554D01*
X008138Y006614D01*
X008017Y006614D01*
X007956Y006554D01*
X007956Y006432D01*
X008017Y006372D01*
X008320Y006372D02*
X008320Y006614D01*
X012033Y009914D02*
X012093Y009854D01*
X012215Y009854D01*
X012275Y009914D01*
X012275Y009975D01*
X012215Y010036D01*
X012093Y010036D01*
X012033Y009975D01*
X012033Y009914D01*
X012093Y010036D02*
X012033Y010096D01*
X012033Y010157D01*
X012093Y010218D01*
X012215Y010218D01*
X012275Y010157D01*
X012275Y010096D01*
X012215Y010036D01*
X012395Y010096D02*
X012456Y010036D01*
X012577Y010036D01*
X012638Y010096D01*
X012638Y010157D01*
X012577Y010218D01*
X012456Y010218D01*
X012395Y010157D01*
X012395Y010096D01*
X012456Y010036D02*
X012395Y009975D01*
X012395Y009914D01*
X012456Y009854D01*
X012577Y009854D01*
X012638Y009914D01*
X012638Y009975D01*
X012577Y010036D01*
X012758Y010036D02*
X012758Y009854D01*
X012940Y009854D01*
X013000Y009914D01*
X012940Y009975D01*
X012758Y009975D01*
X012758Y010036D02*
X012818Y010096D01*
X012940Y010096D01*
X013120Y010096D02*
X013120Y009793D01*
X013181Y009732D01*
X013242Y009732D01*
X013302Y009854D02*
X013120Y009854D01*
X013302Y009854D02*
X013363Y009914D01*
X013363Y010036D01*
X013302Y010096D01*
X013120Y010096D01*
X013483Y010036D02*
X013483Y009975D01*
X013725Y009975D01*
X013725Y010036D02*
X013665Y010096D01*
X013543Y010096D01*
X013483Y010036D01*
X013543Y009854D02*
X013665Y009854D01*
X013725Y009914D01*
X013725Y010036D01*
X013845Y010218D02*
X013967Y010096D01*
X014088Y010218D01*
X014088Y009854D01*
X013845Y009854D02*
X013845Y010218D01*
X017298Y007268D02*
X017298Y007025D01*
X017541Y007268D01*
X017601Y007268D01*
X017662Y007207D01*
X017662Y007086D01*
X017601Y007025D01*
X017601Y006905D02*
X017541Y006905D01*
X017480Y006844D01*
X017419Y006905D01*
X017359Y006905D01*
X017298Y006844D01*
X017298Y006723D01*
X017359Y006662D01*
X017298Y006542D02*
X017298Y006300D01*
X017541Y006542D01*
X017601Y006542D01*
X017662Y006482D01*
X017662Y006360D01*
X017601Y006300D01*
X017662Y006180D02*
X017298Y005937D01*
X017298Y005817D02*
X017541Y005817D01*
X017662Y005696D01*
X017541Y005575D01*
X017298Y005575D01*
X017298Y005455D02*
X017662Y005455D01*
X017541Y005334D01*
X017662Y005212D01*
X017298Y005212D01*
X017480Y005575D02*
X017480Y005817D01*
X017662Y005937D02*
X017298Y006180D01*
X017601Y006662D02*
X017662Y006723D01*
X017662Y006844D01*
X017601Y006905D01*
X017480Y006844D02*
X017480Y006784D01*
X018336Y008458D02*
X018275Y008518D01*
X018275Y008579D01*
X018336Y008640D01*
X018397Y008640D01*
X018457Y008579D01*
X018457Y008518D01*
X018397Y008458D01*
X018336Y008458D01*
X018252Y017755D02*
X018131Y017755D01*
X018070Y017816D01*
X018070Y017937D01*
X018131Y017998D01*
X018252Y017998D01*
X018313Y017937D01*
X018313Y017816D01*
X018252Y017755D01*
X018433Y017755D02*
X018615Y017876D01*
X018433Y017998D01*
X018615Y018119D02*
X018615Y017755D01*
X018735Y017755D02*
X018917Y017755D01*
X018977Y017816D01*
X018977Y017937D01*
X018917Y017998D01*
X018735Y017998D01*
X018735Y018119D02*
X018735Y017755D01*
X019097Y018119D02*
X019340Y017755D01*
X019460Y017755D02*
X019460Y017937D01*
X019520Y017998D01*
X019581Y017937D01*
X019581Y017755D01*
X019702Y017755D02*
X019702Y017998D01*
X019642Y017998D01*
X019581Y017937D01*
X019822Y017937D02*
X019883Y017998D01*
X020004Y017998D01*
X020065Y017937D01*
X020065Y017816D01*
X020004Y017755D01*
X019883Y017755D01*
X019822Y017816D01*
X019822Y017937D01*
X020185Y017998D02*
X020367Y017998D01*
X020427Y017937D01*
X020427Y017816D01*
X020367Y017755D01*
X020185Y017755D01*
X020548Y017755D02*
X020609Y017755D01*
X020609Y017816D01*
X020548Y017816D01*
X020548Y017755D01*
X020728Y017816D02*
X020789Y017755D01*
X020971Y017755D01*
X020971Y018119D01*
X020971Y017998D02*
X020789Y017998D01*
X020728Y017937D01*
X020728Y017816D01*
X021091Y017755D02*
X021091Y017998D01*
X021334Y017998D02*
X021334Y017816D01*
X021273Y017755D01*
X021091Y017755D01*
X021453Y017755D02*
X021453Y017937D01*
X021514Y017998D01*
X021635Y017998D01*
X021696Y017937D01*
X021816Y017998D02*
X021938Y017998D01*
X021877Y018058D02*
X021877Y017816D01*
X021816Y017755D01*
X021696Y017755D02*
X021696Y018119D01*
X022119Y018119D02*
X022119Y018180D01*
X022119Y017998D02*
X022119Y017755D01*
X022179Y017755D02*
X022058Y017755D01*
X022299Y017755D02*
X022481Y017755D01*
X022542Y017816D01*
X022542Y017937D01*
X022481Y017998D01*
X022299Y017998D01*
X022299Y017694D01*
X022360Y017634D01*
X022421Y017634D01*
X022179Y017998D02*
X022119Y017998D01*
X020341Y019736D02*
X020280Y019675D01*
X020098Y019675D01*
X019978Y019736D02*
X019918Y019675D01*
X019736Y019675D01*
X019616Y019675D02*
X019616Y019736D01*
X019555Y019736D01*
X019555Y019675D01*
X019616Y019675D01*
X019616Y019857D02*
X019616Y019918D01*
X019555Y019918D01*
X019555Y019857D01*
X019616Y019857D01*
X019736Y019918D02*
X019918Y019918D01*
X019978Y019857D01*
X019978Y019736D01*
X020098Y019918D02*
X020280Y019918D01*
X020341Y019857D01*
X020341Y019736D01*
X019434Y019736D02*
X019192Y019978D01*
X019192Y019736D01*
X019252Y019675D01*
X019374Y019675D01*
X019434Y019736D01*
X019434Y019978D01*
X019374Y020039D01*
X019252Y020039D01*
X019192Y019978D01*
X017916Y020481D02*
X017855Y020420D01*
X017734Y020420D01*
X017673Y020481D01*
X017673Y020784D01*
X017553Y020663D02*
X017553Y020420D01*
X017311Y020420D02*
X017311Y020602D01*
X017371Y020663D01*
X017553Y020663D01*
X017191Y020663D02*
X017130Y020663D01*
X017130Y020420D01*
X017191Y020420D02*
X017069Y020420D01*
X016828Y020420D02*
X016706Y020663D01*
X016587Y020602D02*
X016587Y020481D01*
X016526Y020420D01*
X016405Y020420D01*
X016344Y020541D02*
X016587Y020541D01*
X016587Y020602D02*
X016526Y020663D01*
X016405Y020663D01*
X016344Y020602D01*
X016344Y020541D01*
X016224Y020541D02*
X016103Y020663D01*
X016042Y020663D01*
X015922Y020602D02*
X015861Y020663D01*
X015679Y020663D01*
X015740Y020541D02*
X015861Y020541D01*
X015922Y020602D01*
X015922Y020420D02*
X015740Y020420D01*
X015679Y020481D01*
X015740Y020541D01*
X015559Y020481D02*
X015499Y020541D01*
X015317Y020541D01*
X015317Y020602D02*
X015317Y020420D01*
X015499Y020420D01*
X015559Y020481D01*
X015499Y020663D02*
X015377Y020663D01*
X015317Y020602D01*
X015197Y020420D02*
X015076Y020420D01*
X015136Y020420D02*
X015136Y020784D01*
X015197Y020784D01*
X014593Y020784D02*
X014593Y020420D01*
X014350Y020420D01*
X014230Y020420D02*
X014230Y020784D01*
X013988Y020784D01*
X013868Y020784D02*
X013686Y020784D01*
X013625Y020723D01*
X013625Y020481D01*
X013686Y020420D01*
X013868Y020420D01*
X013868Y020784D01*
X014109Y020602D02*
X014230Y020602D01*
X014230Y020420D02*
X013988Y020420D01*
X013505Y020420D02*
X013263Y020784D01*
X013143Y020784D02*
X013143Y020420D01*
X012900Y020420D01*
X012780Y020481D02*
X012780Y020723D01*
X012720Y020784D01*
X012598Y020784D01*
X012538Y020723D01*
X012418Y020784D02*
X012418Y020420D01*
X012236Y020420D01*
X012175Y020481D01*
X012175Y020723D01*
X012236Y020784D01*
X012418Y020784D01*
X012538Y020481D02*
X012598Y020420D01*
X012720Y020420D01*
X012780Y020481D01*
X011693Y020481D02*
X011693Y020602D01*
X011632Y020663D01*
X011450Y020663D01*
X011330Y020663D02*
X011269Y020663D01*
X011269Y020420D01*
X011209Y020420D02*
X011330Y020420D01*
X011450Y020420D02*
X011632Y020420D01*
X011693Y020481D01*
X011450Y020420D02*
X011450Y020784D01*
X011269Y020784D02*
X011269Y020845D01*
X011028Y020663D02*
X010846Y020663D01*
X010726Y020663D02*
X010544Y020663D01*
X010483Y020602D01*
X010483Y020481D01*
X010544Y020420D01*
X010726Y020420D01*
X010726Y020299D02*
X010726Y020663D01*
X010906Y020541D02*
X011028Y020541D01*
X011088Y020602D01*
X011028Y020663D01*
X010906Y020541D02*
X010846Y020481D01*
X010906Y020420D01*
X011088Y020420D01*
X010363Y020420D02*
X010242Y020420D01*
X010303Y020420D02*
X010303Y020784D01*
X010363Y020784D01*
X010061Y020663D02*
X009940Y020663D01*
X009879Y020602D01*
X009879Y020420D01*
X010061Y020420D01*
X010122Y020481D01*
X010061Y020541D01*
X009879Y020541D01*
X009759Y020481D02*
X009759Y020663D01*
X009759Y020481D02*
X009699Y020420D01*
X009517Y020420D01*
X009517Y020359D02*
X009577Y020299D01*
X009638Y020299D01*
X009517Y020359D02*
X009517Y020663D01*
X009034Y020663D02*
X008852Y020663D01*
X008792Y020602D01*
X008792Y020481D01*
X008852Y020420D01*
X009034Y020420D01*
X009034Y020784D01*
X008672Y020602D02*
X008672Y020481D01*
X008611Y020420D01*
X008490Y020420D01*
X008429Y020481D01*
X008429Y020602D01*
X008490Y020663D01*
X008611Y020663D01*
X008672Y020602D01*
X008309Y020481D02*
X008249Y020541D01*
X008067Y020541D01*
X008067Y020602D02*
X008067Y020420D01*
X008249Y020420D01*
X008309Y020481D01*
X008249Y020663D02*
X008127Y020663D01*
X008067Y020602D01*
X007947Y020541D02*
X007825Y020663D01*
X007765Y020663D01*
X007645Y020602D02*
X007645Y020481D01*
X007584Y020420D01*
X007402Y020420D01*
X007402Y020784D01*
X007402Y020663D02*
X007584Y020663D01*
X007645Y020602D01*
X007947Y020663D02*
X007947Y020420D01*
X006828Y021108D02*
X006767Y021047D01*
X006585Y021047D01*
X006465Y021108D02*
X006465Y021229D01*
X006405Y021290D01*
X006223Y021290D01*
X006103Y021290D02*
X006103Y021229D01*
X006042Y021229D01*
X006042Y021290D01*
X006103Y021290D01*
X006103Y021108D02*
X006103Y021047D01*
X006042Y021047D01*
X006042Y021108D01*
X006103Y021108D01*
X006223Y021047D02*
X006405Y021047D01*
X006465Y021108D01*
X006585Y021290D02*
X006767Y021290D01*
X006828Y021229D01*
X006828Y021108D01*
X005450Y021037D02*
X005450Y021280D01*
X005268Y021280D01*
X005208Y021219D01*
X005208Y021037D01*
X005088Y021037D02*
X004906Y021037D01*
X004845Y021098D01*
X004845Y021219D01*
X004906Y021280D01*
X005088Y021280D01*
X005088Y020916D01*
X004725Y021037D02*
X004725Y021280D01*
X004543Y021280D01*
X004483Y021219D01*
X004483Y021037D01*
X004707Y020654D02*
X004564Y020464D01*
X004564Y020366D02*
X004564Y020271D01*
X004564Y020318D02*
X004849Y020318D01*
X004849Y020271D01*
X004707Y020171D02*
X004754Y020123D01*
X004754Y019981D01*
X004849Y019981D02*
X004564Y019981D01*
X004564Y020123D01*
X004612Y020171D01*
X004707Y020171D01*
X004849Y020464D02*
X004707Y020654D01*
X004612Y019591D02*
X004802Y019591D01*
X004849Y019543D01*
X004849Y019401D01*
X004564Y019401D01*
X004564Y019543D01*
X004612Y019591D01*
X004612Y019301D02*
X004564Y019253D01*
X004564Y019158D01*
X004612Y019111D01*
X004802Y019111D01*
X004849Y019158D01*
X004849Y019253D01*
X004802Y019301D01*
X004564Y019011D02*
X004564Y018821D01*
X004849Y018821D01*
X004934Y017904D02*
X004873Y017843D01*
X005116Y017600D01*
X005055Y017540D01*
X004934Y017540D01*
X004873Y017600D01*
X004873Y017843D01*
X004934Y017904D02*
X005055Y017904D01*
X005116Y017843D01*
X005116Y017600D01*
X005237Y017600D02*
X005237Y017540D01*
X005297Y017540D01*
X005297Y017600D01*
X005237Y017600D01*
X005237Y017722D02*
X005297Y017722D01*
X005297Y017782D01*
X005237Y017782D01*
X005237Y017722D01*
X005417Y017782D02*
X005599Y017782D01*
X005660Y017722D01*
X005660Y017600D01*
X005599Y017540D01*
X005417Y017540D01*
X005780Y017540D02*
X005962Y017540D01*
X006022Y017600D01*
X006022Y017722D01*
X005962Y017782D01*
X005780Y017782D01*
X005343Y023967D02*
X005343Y024331D01*
X005161Y024331D01*
X005101Y024271D01*
X005101Y024149D01*
X005161Y024089D01*
X005343Y024089D01*
X004981Y024089D02*
X004981Y024331D01*
X004799Y024331D01*
X004738Y024271D01*
X004738Y024089D01*
X004618Y024089D02*
X004436Y024089D01*
X004376Y024149D01*
X004376Y024271D01*
X004436Y024331D01*
X004618Y024331D01*
X004618Y023967D01*
X005946Y024115D02*
X006006Y024115D01*
X006006Y024175D01*
X005946Y024175D01*
X005946Y024115D01*
X006126Y024115D02*
X006126Y024297D01*
X006187Y024357D01*
X006308Y024357D01*
X006308Y024236D02*
X006126Y024236D01*
X006126Y024115D02*
X006308Y024115D01*
X006369Y024175D01*
X006308Y024236D01*
X006489Y024357D02*
X006671Y024357D01*
X006731Y024297D01*
X006731Y024175D01*
X006671Y024115D01*
X006489Y024115D01*
X006006Y024297D02*
X006006Y024357D01*
X005946Y024357D01*
X005946Y024297D01*
X006006Y024297D01*
X006082Y024953D02*
X006143Y024953D01*
X006143Y025014D01*
X006082Y025014D01*
X006082Y024953D01*
X005962Y025014D02*
X005719Y025257D01*
X005719Y025014D01*
X005780Y024953D01*
X005901Y024953D01*
X005962Y025014D01*
X005962Y025257D01*
X005901Y025317D01*
X005780Y025317D01*
X005719Y025257D01*
X006082Y025196D02*
X006082Y025135D01*
X006143Y025135D01*
X006143Y025196D01*
X006082Y025196D01*
X006263Y025135D02*
X006263Y024953D01*
X006445Y024953D01*
X006506Y025014D01*
X006445Y025075D01*
X006263Y025075D01*
X006263Y025135D02*
X006324Y025196D01*
X006445Y025196D01*
X006625Y025196D02*
X006807Y025196D01*
X006868Y025135D01*
X006868Y025014D01*
X006807Y024953D01*
X006625Y024953D01*
X015653Y018119D02*
X015896Y017755D01*
X016137Y017755D02*
X016016Y017998D01*
X016258Y017998D02*
X016137Y017755D01*
X016378Y017816D02*
X016378Y017937D01*
X016439Y017998D01*
X016560Y017998D01*
X016621Y017937D01*
X016621Y017816D01*
X016560Y017755D01*
X016439Y017755D01*
X016378Y017816D01*
X016741Y017755D02*
X016923Y017876D01*
X016741Y017998D01*
X016923Y018119D02*
X016923Y017755D01*
X017043Y017816D02*
X017043Y017937D01*
X017104Y017998D01*
X017286Y017998D01*
X017286Y018119D02*
X017286Y017755D01*
X017104Y017755D01*
X017043Y017816D01*
X017405Y017816D02*
X017466Y017755D01*
X017587Y017755D01*
X017648Y017816D01*
X017648Y017937D01*
X017587Y017998D01*
X017466Y017998D01*
X017405Y017937D01*
X017405Y017816D01*
X017768Y017998D02*
X017829Y017998D01*
X017950Y017876D01*
X017950Y017755D02*
X017950Y017998D01*
X017916Y020481D02*
X017916Y020784D01*
X017130Y020784D02*
X017130Y020845D01*
X016949Y020663D02*
X016828Y020420D01*
X016224Y020420D02*
X016224Y020663D01*
X020095Y021035D02*
X020095Y021217D01*
X020156Y021278D01*
X020338Y021278D01*
X020338Y021035D01*
X020458Y021096D02*
X020518Y021035D01*
X020700Y021035D01*
X020820Y021035D02*
X020820Y021217D01*
X020881Y021278D01*
X021063Y021278D01*
X021063Y021035D01*
X020700Y020914D02*
X020700Y021278D01*
X020518Y021278D01*
X020458Y021217D01*
X020458Y021096D01*
X021713Y021103D02*
X021713Y021043D01*
X021774Y021043D01*
X021774Y021103D01*
X021713Y021103D01*
X021713Y021225D02*
X021774Y021225D01*
X021774Y021285D01*
X021713Y021285D01*
X021713Y021225D01*
X021894Y021285D02*
X022076Y021285D01*
X022137Y021225D01*
X022137Y021103D01*
X022076Y021043D01*
X021894Y021043D01*
X022256Y021043D02*
X022438Y021043D01*
X022499Y021103D01*
X022499Y021225D01*
X022438Y021285D01*
X022256Y021285D01*
X021114Y023885D02*
X021114Y024249D01*
X020932Y024249D01*
X020871Y024188D01*
X020871Y024067D01*
X020932Y024006D01*
X021114Y024006D01*
X020751Y024006D02*
X020751Y024249D01*
X020569Y024249D01*
X020508Y024188D01*
X020508Y024006D01*
X020389Y024006D02*
X020207Y024006D01*
X020146Y024067D01*
X020146Y024188D01*
X020207Y024249D01*
X020389Y024249D01*
X020389Y023885D01*
X021506Y023978D02*
X021567Y023978D01*
X021567Y024038D01*
X021506Y024038D01*
X021506Y023978D01*
X021687Y023978D02*
X021869Y023978D01*
X021929Y024038D01*
X021869Y024099D01*
X021687Y024099D01*
X021687Y024160D02*
X021687Y023978D01*
X021687Y024160D02*
X021747Y024220D01*
X021869Y024220D01*
X022049Y024220D02*
X022231Y024220D01*
X022292Y024160D01*
X022292Y024038D01*
X022231Y023978D01*
X022049Y023978D01*
X021567Y024160D02*
X021567Y024220D01*
X021506Y024220D01*
X021506Y024160D01*
X021567Y024160D01*
X021656Y025058D02*
X021838Y025058D01*
X021898Y025118D01*
X021898Y025240D01*
X021838Y025300D01*
X021656Y025300D01*
X021475Y025300D02*
X021354Y025300D01*
X021293Y025240D01*
X021293Y025058D01*
X021475Y025058D01*
X021536Y025118D01*
X021475Y025179D01*
X021293Y025179D01*
X021173Y025118D02*
X021173Y025058D01*
X021113Y025058D01*
X021113Y025118D01*
X021173Y025118D01*
X021173Y025240D02*
X021173Y025300D01*
X021113Y025300D01*
X021113Y025240D01*
X021173Y025240D01*
X020992Y025361D02*
X020931Y025422D01*
X020810Y025422D01*
X020749Y025361D01*
X020992Y025118D01*
X020931Y025058D01*
X020810Y025058D01*
X020749Y025118D01*
X020749Y025361D01*
X020992Y025361D02*
X020992Y025118D01*
D12*
X011513Y008366D02*
X011619Y008259D01*
X011619Y008152D01*
X011513Y008045D01*
X011406Y008045D01*
X011299Y008152D01*
X011299Y008259D01*
X011406Y008366D01*
X011513Y008366D01*
X009258Y007298D02*
X009258Y007192D01*
X009151Y007085D01*
X009044Y007085D01*
X008937Y007192D01*
X008937Y007298D01*
X009044Y007405D01*
X009151Y007405D01*
X009258Y007298D01*
M02*
