G75*
G70*
%OFA0B0*%
%FSLAX24Y24*%
%IPPOS*%
%LPD*%
%AMOC8*
5,1,8,0,0,1.08239X$1,22.5*
%
%ADD10C,0.1261*%
%ADD11C,0.0277*%
%ADD12R,0.0592X0.0671*%
%ADD13C,0.0830*%
%ADD14C,0.0671*%
%ADD15OC8,0.0680*%
%ADD16R,0.0671X0.0592*%
%ADD17R,0.1025X0.1025*%
%ADD18C,0.0905*%
%ADD19C,0.0749*%
%ADD20R,0.0340X0.0880*%
%ADD21C,0.0600*%
%ADD22R,0.0710X0.0540*%
%ADD23R,0.0720X0.0060*%
%ADD24C,0.0946*%
%ADD25R,0.0413X0.0620*%
%ADD26C,0.0516*%
%ADD27C,0.0556*%
D10*
X003589Y002903D03*
X003589Y013927D03*
X003589Y026132D03*
X022880Y026132D03*
X022880Y013927D03*
X022880Y002903D03*
D11*
X022908Y015722D03*
X022408Y015722D03*
X021908Y015722D03*
X021408Y015722D03*
X020908Y015722D03*
X020408Y015722D03*
X019908Y015722D03*
X019408Y015722D03*
X018908Y015722D03*
X018408Y015722D03*
X017908Y015722D03*
X017408Y015722D03*
X016908Y015722D03*
X016408Y015722D03*
X015908Y015722D03*
X015408Y015722D03*
X014908Y015722D03*
X014408Y015722D03*
X013908Y015722D03*
X013408Y015722D03*
X012908Y015722D03*
X012408Y015722D03*
X011908Y015722D03*
X011408Y015722D03*
X010908Y015722D03*
X010408Y015722D03*
X009908Y015722D03*
X009408Y015722D03*
X008908Y015722D03*
X008408Y015722D03*
X007908Y015722D03*
X007408Y015722D03*
X006908Y015722D03*
X006408Y015722D03*
X005908Y015722D03*
X005408Y015722D03*
X004908Y015722D03*
X004408Y015722D03*
X003908Y015722D03*
X003408Y015722D03*
X002908Y015722D03*
X023408Y015722D03*
X023908Y015722D03*
D12*
X018148Y016379D03*
X017400Y016379D03*
X012889Y016493D03*
X012141Y016493D03*
X011228Y016403D03*
X010480Y016403D03*
X009535Y016413D03*
X008787Y016413D03*
X005538Y024951D03*
X004790Y024951D03*
X010534Y006722D03*
X011282Y006722D03*
X007087Y005210D03*
X006339Y005210D03*
X004661Y005004D03*
X003913Y005004D03*
D13*
X004408Y007722D03*
X003408Y007722D03*
X003408Y008722D03*
X004408Y008722D03*
X005408Y008722D03*
X005408Y007722D03*
X006408Y007722D03*
X007408Y007722D03*
X007408Y008722D03*
X006408Y008722D03*
X006408Y009722D03*
X007408Y009722D03*
X007408Y010722D03*
X006408Y010722D03*
X005408Y010722D03*
X005408Y011722D03*
X006408Y011722D03*
X007408Y011722D03*
X006408Y012722D03*
X005408Y012722D03*
X004408Y012722D03*
X003408Y012722D03*
X003408Y011722D03*
X003408Y010722D03*
X004408Y010722D03*
X004408Y011722D03*
X004408Y009722D03*
X003408Y009722D03*
X005408Y009722D03*
X009408Y013722D03*
X010408Y013722D03*
X011408Y013722D03*
X012408Y013722D03*
X013408Y013722D03*
X014408Y013722D03*
X015408Y013722D03*
X016408Y013722D03*
X016408Y014722D03*
X017408Y014722D03*
X018408Y014722D03*
X019408Y014722D03*
X020408Y014722D03*
X021408Y014722D03*
X023408Y016722D03*
X023408Y017722D03*
X023408Y018722D03*
X023408Y019722D03*
X023408Y020722D03*
X023408Y021722D03*
X023408Y022722D03*
X023408Y023722D03*
X023408Y024722D03*
X021408Y026722D03*
X020408Y026722D03*
X019408Y026722D03*
X018408Y026722D03*
X017408Y026722D03*
X016408Y026722D03*
X015408Y026722D03*
X014408Y026722D03*
X013408Y026722D03*
X012408Y026722D03*
X011408Y026722D03*
X010408Y026722D03*
X009408Y026722D03*
X008408Y026722D03*
X007408Y026722D03*
X006408Y026722D03*
X005408Y026722D03*
X003408Y024722D03*
X003408Y023722D03*
X003408Y022722D03*
X003408Y021722D03*
X003408Y020722D03*
X003408Y019722D03*
X003408Y018722D03*
X003408Y017722D03*
X003408Y016722D03*
X005408Y014722D03*
X006408Y014722D03*
X007408Y014722D03*
X008408Y014722D03*
X009408Y014722D03*
X010408Y014722D03*
X011408Y014722D03*
X012408Y014722D03*
X014408Y014722D03*
X015408Y014722D03*
X020408Y011722D03*
X020408Y010722D03*
X021408Y010722D03*
X021408Y011722D03*
X022408Y011722D03*
X022408Y010722D03*
X023408Y010722D03*
X023408Y011722D03*
X023408Y009722D03*
X022408Y009722D03*
X022408Y008722D03*
X022408Y007722D03*
X023408Y007722D03*
X023408Y008722D03*
X023408Y006722D03*
X023408Y005722D03*
X022408Y005722D03*
X022408Y006722D03*
X021408Y006722D03*
X021408Y005722D03*
X020408Y005722D03*
X020408Y006722D03*
X020408Y007722D03*
X021408Y007722D03*
X021408Y008722D03*
X020408Y008722D03*
X020408Y009722D03*
X021408Y009722D03*
X021408Y004722D03*
X021408Y003722D03*
X020408Y003722D03*
X019408Y003722D03*
X020408Y004722D03*
X020408Y002722D03*
X021408Y002722D03*
X019408Y002722D03*
X018408Y002722D03*
X018408Y003722D03*
X022408Y004722D03*
X023408Y004722D03*
X016735Y022484D03*
X016735Y023376D03*
X015735Y023376D03*
X015735Y022484D03*
X014735Y022484D03*
X014735Y023376D03*
X013735Y023376D03*
X013735Y022484D03*
X012735Y022484D03*
X012735Y023376D03*
X011735Y023376D03*
X011735Y022484D03*
X010735Y022484D03*
X010735Y023376D03*
X009735Y023376D03*
X009735Y022484D03*
D14*
X010144Y024385D03*
X010124Y025089D03*
X011109Y025089D03*
X011144Y024385D03*
X012144Y024385D03*
X012093Y025089D03*
X013195Y025089D03*
X013144Y024385D03*
X014144Y024385D03*
X014180Y025089D03*
X015164Y025089D03*
X015144Y024385D03*
X016148Y025089D03*
X017132Y025089D03*
X017132Y019085D03*
X016148Y019085D03*
X015164Y019085D03*
X015144Y018385D03*
X014144Y018381D03*
X014180Y019085D03*
X013195Y019085D03*
X013144Y018381D03*
X012144Y018381D03*
X012093Y019085D03*
X011109Y019085D03*
X011144Y018381D03*
X010144Y018381D03*
X010124Y019085D03*
X009140Y019085D03*
X008156Y019085D03*
X008156Y025089D03*
X009140Y025089D03*
D15*
X017431Y013720D03*
X017265Y011777D03*
X017265Y010777D03*
X016265Y010777D03*
X016265Y011777D03*
X016265Y009777D03*
X017265Y009777D03*
D16*
X017762Y008233D03*
X017762Y007485D03*
X017528Y006629D03*
X017528Y005881D03*
X017538Y005005D03*
X017538Y004257D03*
X018943Y008651D03*
X018943Y009400D03*
X018943Y010403D03*
X018943Y011151D03*
D17*
X013395Y008355D03*
X013395Y006387D03*
X009057Y006399D03*
X007325Y006399D03*
X005351Y006363D03*
X003382Y006363D03*
D18*
X008495Y004493D02*
X008495Y003668D01*
X010495Y003668D02*
X010495Y004493D01*
D19*
X010184Y003403D03*
X008806Y003403D03*
X013030Y003683D03*
X014408Y003683D03*
X015786Y003683D03*
D20*
X015626Y006004D03*
X015126Y006004D03*
X016126Y006004D03*
X016626Y006004D03*
X016626Y008424D03*
X016126Y008424D03*
X015626Y008424D03*
X015126Y008424D03*
D21*
X010442Y009145D03*
X010442Y011045D03*
D22*
X009701Y011047D03*
X009701Y011647D03*
X008417Y013164D03*
X008417Y013764D03*
X007570Y013765D03*
X007570Y013165D03*
X009708Y009777D03*
X009708Y009177D03*
D23*
X009708Y009477D03*
X009701Y011347D03*
X008417Y013464D03*
X007570Y013465D03*
D24*
X005164Y022317D02*
X005164Y022907D01*
D25*
X005164Y023765D03*
X005754Y023765D03*
X004573Y023765D03*
D26*
X005085Y002791D02*
X005085Y002354D01*
X008372Y002354D02*
X008372Y002791D01*
D27*
X007604Y003516D02*
X007604Y003991D01*
X005852Y003991D02*
X005852Y003516D01*
M02*
