G75*
G70*
%OFA0B0*%
%FSLAX24Y24*%
%IPPOS*%
%LPD*%
%AMOC8*
5,1,8,0,0,1.08239X$1,22.5*
%
%ADD10C,0.1261*%
%ADD11C,0.0277*%
%ADD12R,0.0592X0.0671*%
%ADD13C,0.0830*%
%ADD14C,0.0671*%
%ADD15OC8,0.0680*%
%ADD16R,0.1025X0.1025*%
%ADD17C,0.0905*%
%ADD18C,0.0749*%
%ADD19R,0.0340X0.0880*%
%ADD20R,0.0671X0.0592*%
%ADD21C,0.0600*%
D10*
X001887Y003267D03*
X001887Y014291D03*
X001887Y026496D03*
X021178Y026496D03*
X021178Y014291D03*
X021178Y003267D03*
D11*
X021206Y016086D03*
X021706Y016086D03*
X022206Y016086D03*
X020706Y016086D03*
X020206Y016086D03*
X019706Y016086D03*
X019206Y016086D03*
X018706Y016086D03*
X018206Y016086D03*
X017706Y016086D03*
X017206Y016086D03*
X016706Y016086D03*
X016206Y016086D03*
X015706Y016086D03*
X015206Y016086D03*
X014706Y016086D03*
X014206Y016086D03*
X013706Y016086D03*
X013206Y016086D03*
X012706Y016086D03*
X012206Y016086D03*
X011706Y016086D03*
X011206Y016086D03*
X010706Y016086D03*
X010206Y016086D03*
X009706Y016086D03*
X009206Y016086D03*
X008706Y016086D03*
X008206Y016086D03*
X007706Y016086D03*
X007206Y016086D03*
X006706Y016086D03*
X006206Y016086D03*
X005706Y016086D03*
X005206Y016086D03*
X004706Y016086D03*
X004206Y016086D03*
X003706Y016086D03*
X003206Y016086D03*
X002706Y016086D03*
X002206Y016086D03*
X001706Y016086D03*
X001206Y016086D03*
D12*
X007085Y016777D03*
X007833Y016777D03*
X008778Y016767D03*
X009526Y016767D03*
X010433Y016764D03*
X011181Y016764D03*
X013349Y016746D03*
X014097Y016746D03*
X009580Y007086D03*
X008831Y007086D03*
D13*
X005456Y007836D03*
X005456Y008836D03*
X005456Y009836D03*
X005456Y010836D03*
X005456Y011836D03*
X004456Y011836D03*
X004456Y010836D03*
X004456Y009836D03*
X004456Y008836D03*
X004456Y007836D03*
X003456Y007836D03*
X003456Y008836D03*
X003456Y009836D03*
X003456Y010836D03*
X003456Y011836D03*
X003456Y012836D03*
X004456Y012836D03*
X004705Y015078D03*
X003705Y015078D03*
X002456Y012836D03*
X002456Y011836D03*
X002456Y010836D03*
X002456Y009836D03*
X002456Y008836D03*
X002456Y007836D03*
X001456Y007836D03*
X001456Y008836D03*
X001456Y009836D03*
X001456Y010836D03*
X001456Y011836D03*
X001456Y012836D03*
X001493Y017586D03*
X001493Y018586D03*
X001493Y019586D03*
X001493Y020586D03*
X001493Y021586D03*
X001493Y022586D03*
X001493Y023586D03*
X001493Y024586D03*
X003898Y026889D03*
X004898Y026889D03*
X005898Y026889D03*
X006898Y026889D03*
X007898Y026889D03*
X008898Y026889D03*
X009898Y026889D03*
X010898Y026889D03*
X011898Y026888D03*
X012898Y026888D03*
X013898Y026888D03*
X014898Y026888D03*
X015898Y026888D03*
X016898Y026888D03*
X017898Y026888D03*
X018898Y026888D03*
X021572Y024586D03*
X021572Y023586D03*
X021572Y022586D03*
X021572Y021586D03*
X021572Y020586D03*
X021572Y019586D03*
X021572Y018586D03*
X021572Y017586D03*
X019729Y015078D03*
X018729Y015078D03*
X017729Y015078D03*
X016729Y015078D03*
X015729Y015078D03*
X014729Y015078D03*
X013729Y015078D03*
X012729Y015078D03*
X013206Y013897D03*
X014206Y013897D03*
X015206Y013897D03*
X012206Y013897D03*
X011206Y013897D03*
X010206Y013897D03*
X009206Y013897D03*
X008206Y013897D03*
X008705Y015078D03*
X009705Y015078D03*
X010705Y015078D03*
X007705Y015078D03*
X006705Y015078D03*
X005705Y015078D03*
X016710Y004338D03*
X017710Y004338D03*
X017717Y003330D03*
X016717Y003330D03*
X018717Y003330D03*
X019717Y003330D03*
X019710Y004338D03*
X019706Y005336D03*
X019706Y006336D03*
X019706Y007336D03*
X019706Y008336D03*
X019706Y009336D03*
X019706Y010336D03*
X019706Y011336D03*
X019706Y012336D03*
X018706Y012336D03*
X018706Y011336D03*
X018706Y010336D03*
X018706Y009336D03*
X018706Y008336D03*
X018706Y007336D03*
X018706Y006336D03*
X018706Y005336D03*
X018710Y004338D03*
X020706Y005336D03*
X021706Y005305D03*
X021706Y006305D03*
X021706Y007305D03*
X021706Y008305D03*
X021706Y009305D03*
X021706Y010305D03*
X021706Y011305D03*
X021706Y012305D03*
X020706Y012336D03*
X020706Y011336D03*
X020706Y010336D03*
X020706Y009336D03*
X020706Y008336D03*
X020706Y007336D03*
X020706Y006336D03*
D14*
X013442Y018749D03*
X013461Y019449D03*
X014446Y019449D03*
X015430Y019449D03*
X012477Y019449D03*
X012442Y018745D03*
X011442Y018745D03*
X011493Y019449D03*
X010391Y019449D03*
X010442Y018745D03*
X009442Y018745D03*
X009406Y019449D03*
X008422Y019449D03*
X008442Y018745D03*
X007438Y019449D03*
X006454Y019449D03*
X008442Y024749D03*
X008422Y025452D03*
X009406Y025452D03*
X009442Y024749D03*
X010442Y024749D03*
X010391Y025452D03*
X011493Y025452D03*
X011442Y024749D03*
X012442Y024749D03*
X012477Y025452D03*
X013461Y025452D03*
X013442Y024749D03*
X014446Y025452D03*
X015430Y025452D03*
X007438Y025452D03*
X006454Y025452D03*
D15*
X016203Y013897D03*
X015562Y012141D03*
X015562Y011141D03*
X015562Y010141D03*
X014562Y010141D03*
X014562Y011141D03*
X014562Y012141D03*
D16*
X011693Y008719D03*
X011693Y006751D03*
X003870Y006222D03*
X002137Y006222D03*
D17*
X005206Y004499D02*
X005206Y003674D01*
X008206Y003674D02*
X008206Y004499D01*
D18*
X007394Y004047D03*
X006017Y004047D03*
X011328Y004047D03*
X012706Y004047D03*
X014083Y004047D03*
D19*
X013924Y006368D03*
X014424Y006368D03*
X014924Y006368D03*
X013424Y006368D03*
X013424Y008788D03*
X013924Y008788D03*
X014424Y008788D03*
X014924Y008788D03*
D20*
X016060Y008597D03*
X016060Y007849D03*
X015825Y006993D03*
X015825Y006245D03*
X015836Y005369D03*
X015836Y004621D03*
X017241Y009015D03*
X017241Y009763D03*
X008006Y009467D03*
X008006Y010215D03*
X007999Y011337D03*
X007999Y012085D03*
X006702Y013098D03*
X006702Y013846D03*
X005725Y013866D03*
X005725Y013118D03*
D21*
X008664Y011387D03*
X008664Y009487D03*
M02*
