G75*
G70*
%OFA0B0*%
%FSLAX24Y24*%
%IPPOS*%
%LPD*%
%AMOC8*
5,1,8,0,0,1.08239X$1,22.5*
%
%ADD10C,0.1261*%
%ADD11C,0.0277*%
%ADD12R,0.0580X0.0300*%
%ADD13R,0.0300X0.0580*%
%ADD14R,0.0671X0.0592*%
%ADD15C,0.0830*%
%ADD16C,0.0671*%
%ADD17R,0.0474X0.0631*%
%ADD18R,0.0710X0.0540*%
%ADD19R,0.0720X0.0060*%
%ADD20OC8,0.0680*%
%ADD21R,0.0592X0.0671*%
%ADD22R,0.0946X0.0316*%
%ADD23C,0.0905*%
%ADD24C,0.0749*%
%ADD25R,0.0671X0.0671*%
%ADD26C,0.0600*%
%ADD27C,0.0516*%
%ADD28C,0.0556*%
%ADD29R,0.0237X0.0611*%
%ADD30R,0.0709X0.0748*%
%ADD31R,0.0620X0.0748*%
D10*
X003589Y002903D03*
X003589Y013927D03*
X003589Y026132D03*
X022880Y026132D03*
X022880Y013927D03*
X022880Y002903D03*
D11*
X022908Y015722D03*
X022408Y015722D03*
X021908Y015722D03*
X021408Y015722D03*
X020908Y015722D03*
X020408Y015722D03*
X019908Y015722D03*
X019408Y015722D03*
X018908Y015722D03*
X018408Y015722D03*
X017908Y015722D03*
X017408Y015722D03*
X016908Y015722D03*
X016408Y015722D03*
X015908Y015722D03*
X015408Y015722D03*
X014908Y015722D03*
X014408Y015722D03*
X013908Y015722D03*
X013408Y015722D03*
X012908Y015722D03*
X012408Y015722D03*
X011908Y015722D03*
X011408Y015722D03*
X010908Y015722D03*
X010408Y015722D03*
X009908Y015722D03*
X009408Y015722D03*
X008908Y015722D03*
X008408Y015722D03*
X007908Y015722D03*
X007408Y015722D03*
X006908Y015722D03*
X006408Y015722D03*
X005908Y015722D03*
X005408Y015722D03*
X004908Y015722D03*
X004408Y015722D03*
X003908Y015722D03*
X003408Y015722D03*
X002908Y015722D03*
X023408Y015722D03*
X023908Y015722D03*
D12*
X014797Y010916D03*
X014797Y010601D03*
X014797Y010286D03*
X014797Y009971D03*
X014797Y009656D03*
X014797Y009341D03*
X014797Y009027D03*
X014797Y008712D03*
X011417Y008712D03*
X011417Y009027D03*
X011417Y009341D03*
X011417Y009656D03*
X011417Y009971D03*
X011417Y010286D03*
X011417Y010601D03*
X011417Y010916D03*
D13*
X012005Y011504D03*
X012319Y011504D03*
X012634Y011504D03*
X012949Y011504D03*
X013264Y011504D03*
X013579Y011504D03*
X013894Y011504D03*
X014209Y011504D03*
X014209Y008124D03*
X013894Y008124D03*
X013579Y008124D03*
X013264Y008124D03*
X012949Y008124D03*
X012634Y008124D03*
X012319Y008124D03*
X012005Y008124D03*
D14*
X004209Y006498D03*
X004209Y005750D03*
X003240Y005742D03*
X003240Y006490D03*
X008156Y016545D03*
X008156Y017293D03*
X009219Y017293D03*
X009219Y016545D03*
X010282Y016545D03*
X010282Y017293D03*
X011345Y017293D03*
X011345Y016545D03*
X012408Y016545D03*
X012408Y017293D03*
X013471Y017293D03*
X013471Y016545D03*
X014534Y016545D03*
X014534Y017293D03*
X015597Y017293D03*
X015597Y016545D03*
X016660Y016545D03*
X016660Y017293D03*
X017723Y017293D03*
X017723Y016545D03*
X018786Y016545D03*
X018786Y017293D03*
X019849Y017293D03*
X019849Y016545D03*
X020912Y016545D03*
X020912Y017293D03*
X021975Y017293D03*
X021975Y016545D03*
X021993Y018493D03*
X021993Y019241D03*
X020901Y019243D03*
X020901Y018495D03*
X006524Y018645D03*
X006524Y019393D03*
X005460Y019389D03*
X005460Y018640D03*
D15*
X003408Y018722D03*
X003408Y019722D03*
X003408Y020722D03*
X003408Y021722D03*
X003408Y022722D03*
X003408Y023722D03*
X003408Y024722D03*
X005408Y026722D03*
X006408Y026722D03*
X007408Y026722D03*
X008408Y026722D03*
X009408Y026722D03*
X010408Y026722D03*
X011408Y026722D03*
X012408Y026722D03*
X013408Y026722D03*
X014408Y026722D03*
X015408Y026722D03*
X016408Y026722D03*
X017408Y026722D03*
X018408Y026722D03*
X019408Y026722D03*
X020408Y026722D03*
X021408Y026722D03*
X023408Y024722D03*
X023408Y023722D03*
X023408Y022722D03*
X023408Y021722D03*
X023408Y020722D03*
X023408Y019722D03*
X023408Y018722D03*
X023408Y017722D03*
X023408Y016722D03*
X021408Y014722D03*
X020408Y014722D03*
X019408Y014722D03*
X018408Y014722D03*
X017408Y014722D03*
X016408Y014722D03*
X016408Y013722D03*
X015408Y013722D03*
X014408Y013722D03*
X013408Y013722D03*
X012408Y013722D03*
X011408Y013722D03*
X010408Y013722D03*
X009408Y013722D03*
X009408Y014722D03*
X010408Y014722D03*
X011408Y014722D03*
X012408Y014722D03*
X014408Y014722D03*
X015408Y014722D03*
X020408Y011722D03*
X020408Y010722D03*
X021408Y010722D03*
X021408Y011722D03*
X022408Y011722D03*
X022408Y010722D03*
X023408Y010722D03*
X023408Y011722D03*
X023408Y009722D03*
X022408Y009722D03*
X022408Y008722D03*
X022408Y007722D03*
X023408Y007722D03*
X023408Y008722D03*
X023408Y006722D03*
X023408Y005722D03*
X022408Y005722D03*
X022408Y006722D03*
X021408Y006722D03*
X021408Y005722D03*
X020408Y005722D03*
X020408Y006722D03*
X020408Y007722D03*
X021408Y007722D03*
X021408Y008722D03*
X020408Y008722D03*
X020408Y009722D03*
X021408Y009722D03*
X021408Y004722D03*
X021408Y003722D03*
X020408Y003722D03*
X019408Y003722D03*
X020408Y004722D03*
X020408Y002722D03*
X021408Y002722D03*
X019408Y002722D03*
X018408Y002722D03*
X018408Y003722D03*
X022408Y004722D03*
X023408Y004722D03*
X008408Y014722D03*
X007408Y014722D03*
X006408Y014722D03*
X005408Y014722D03*
X005408Y012722D03*
X006408Y012722D03*
X006408Y011722D03*
X006408Y010722D03*
X007408Y010722D03*
X007408Y011722D03*
X005408Y011722D03*
X005408Y010722D03*
X005408Y009722D03*
X006408Y009722D03*
X007408Y009722D03*
X007408Y008722D03*
X007408Y007722D03*
X006408Y007722D03*
X005408Y007722D03*
X005408Y008722D03*
X006408Y008722D03*
X004408Y008722D03*
X004408Y007722D03*
X003408Y007722D03*
X003408Y008722D03*
X003408Y009722D03*
X004408Y009722D03*
X004408Y010722D03*
X003408Y010722D03*
X003408Y011722D03*
X004408Y011722D03*
X004408Y012722D03*
X003408Y012722D03*
X003408Y016722D03*
X003408Y017722D03*
X009735Y022484D03*
X009735Y023376D03*
X010735Y023376D03*
X010735Y022484D03*
X011735Y022484D03*
X011735Y023376D03*
X012735Y023376D03*
X012735Y022484D03*
X013735Y022484D03*
X013735Y023376D03*
X014735Y023376D03*
X014735Y022484D03*
X015735Y022484D03*
X015735Y023376D03*
X016735Y023376D03*
X016735Y022484D03*
D16*
X015144Y024385D03*
X015164Y025089D03*
X014180Y025089D03*
X014144Y024385D03*
X013144Y024385D03*
X013195Y025089D03*
X012093Y025089D03*
X012144Y024385D03*
X011144Y024385D03*
X011109Y025089D03*
X010124Y025089D03*
X010144Y024385D03*
X009140Y025089D03*
X008156Y025089D03*
X008156Y019085D03*
X009140Y019085D03*
X010124Y019085D03*
X010144Y018381D03*
X011144Y018381D03*
X011109Y019085D03*
X012093Y019085D03*
X012144Y018381D03*
X013144Y018381D03*
X013195Y019085D03*
X014180Y019085D03*
X014144Y018381D03*
X015144Y018385D03*
X015164Y019085D03*
X016148Y019085D03*
X017132Y019085D03*
X017132Y025089D03*
X016148Y025089D03*
D17*
X020083Y023502D03*
X020831Y023502D03*
X021606Y023492D03*
X022354Y023492D03*
X021980Y022626D03*
X021979Y022618D03*
X021605Y021752D03*
X022353Y021752D03*
X020829Y021767D03*
X020081Y021767D03*
X020455Y022634D03*
X020457Y022635D03*
X006719Y021800D03*
X005971Y021800D03*
X005078Y021816D03*
X004330Y021816D03*
X004696Y022674D03*
X004704Y022682D03*
X005070Y023540D03*
X004322Y023540D03*
X005966Y023531D03*
X006714Y023531D03*
X006345Y022666D03*
X006340Y022665D03*
X005164Y005699D03*
X005538Y004833D03*
X004790Y004833D03*
D18*
X004376Y017722D03*
X004376Y018322D03*
X005164Y024828D03*
X005164Y025428D03*
X019820Y019162D03*
X019820Y018562D03*
X020251Y024928D03*
X020251Y025528D03*
D19*
X020251Y025228D03*
X019820Y018862D03*
X005164Y025128D03*
X004376Y018022D03*
D20*
X016265Y011777D03*
X016265Y010777D03*
X017265Y010777D03*
X017265Y011777D03*
X017431Y013720D03*
X017265Y009777D03*
X016265Y009777D03*
D21*
X011238Y006732D03*
X010490Y006732D03*
X009829Y009123D03*
X009081Y009123D03*
X009081Y011021D03*
X009829Y011021D03*
X010150Y011909D03*
X010898Y011909D03*
X011034Y002472D03*
X011782Y002472D03*
X010084Y002469D03*
X009336Y002469D03*
D22*
X009182Y005319D03*
X009182Y005819D03*
X009182Y006319D03*
X009182Y006819D03*
X007134Y006819D03*
X007134Y006319D03*
X007134Y005819D03*
X007134Y005319D03*
X016452Y005175D03*
X016452Y004675D03*
X016452Y005675D03*
X016452Y006175D03*
X016452Y006675D03*
X016452Y007175D03*
X016452Y007675D03*
X016452Y008175D03*
X018500Y008175D03*
X018500Y007675D03*
X018500Y007175D03*
X018500Y006675D03*
X018500Y006175D03*
X018500Y005675D03*
X018500Y005175D03*
X018500Y004675D03*
D23*
X010495Y004493D02*
X010495Y003668D01*
X008495Y003668D02*
X008495Y004493D01*
D24*
X008806Y003403D03*
X010184Y003403D03*
X013030Y003683D03*
X014408Y003683D03*
X015786Y003683D03*
D25*
X011908Y003533D03*
X011908Y004911D03*
D26*
X010442Y009145D03*
X010442Y011045D03*
D27*
X008372Y002791D02*
X008372Y002354D01*
X005085Y002354D02*
X005085Y002791D01*
D28*
X005852Y003516D02*
X005852Y003991D01*
X007604Y003991D02*
X007604Y003516D01*
D29*
X007240Y003675D03*
X006984Y003675D03*
X006728Y003675D03*
X006472Y003675D03*
X006216Y003675D03*
D30*
X006275Y002572D03*
X007181Y002572D03*
D31*
X008062Y002572D03*
X005395Y002572D03*
M02*
