G75*
G70*
%OFA0B0*%
%FSLAX24Y24*%
%IPPOS*%
%LPD*%
%AMOC8*
5,1,8,0,0,1.08239X$1,22.5*
%
%ADD10C,0.0000*%
D10*
X000706Y002086D02*
X000706Y027677D01*
X022359Y027677D01*
X022359Y002086D01*
X000706Y002086D01*
X001296Y003267D02*
X001298Y003315D01*
X001304Y003363D01*
X001314Y003410D01*
X001327Y003456D01*
X001345Y003501D01*
X001365Y003545D01*
X001390Y003587D01*
X001418Y003626D01*
X001448Y003663D01*
X001482Y003697D01*
X001519Y003729D01*
X001557Y003758D01*
X001598Y003783D01*
X001641Y003805D01*
X001686Y003823D01*
X001732Y003837D01*
X001779Y003848D01*
X001827Y003855D01*
X001875Y003858D01*
X001923Y003857D01*
X001971Y003852D01*
X002019Y003843D01*
X002065Y003831D01*
X002110Y003814D01*
X002154Y003794D01*
X002196Y003771D01*
X002236Y003744D01*
X002274Y003714D01*
X002309Y003681D01*
X002341Y003645D01*
X002371Y003607D01*
X002397Y003566D01*
X002419Y003523D01*
X002439Y003479D01*
X002454Y003434D01*
X002466Y003387D01*
X002474Y003339D01*
X002478Y003291D01*
X002478Y003243D01*
X002474Y003195D01*
X002466Y003147D01*
X002454Y003100D01*
X002439Y003055D01*
X002419Y003011D01*
X002397Y002968D01*
X002371Y002927D01*
X002341Y002889D01*
X002309Y002853D01*
X002274Y002820D01*
X002236Y002790D01*
X002196Y002763D01*
X002154Y002740D01*
X002110Y002720D01*
X002065Y002703D01*
X002019Y002691D01*
X001971Y002682D01*
X001923Y002677D01*
X001875Y002676D01*
X001827Y002679D01*
X001779Y002686D01*
X001732Y002697D01*
X001686Y002711D01*
X001641Y002729D01*
X001598Y002751D01*
X001557Y002776D01*
X001519Y002805D01*
X001482Y002837D01*
X001448Y002871D01*
X001418Y002908D01*
X001390Y002947D01*
X001365Y002989D01*
X001345Y003033D01*
X001327Y003078D01*
X001314Y003124D01*
X001304Y003171D01*
X001298Y003219D01*
X001296Y003267D01*
X001296Y014291D02*
X001298Y014339D01*
X001304Y014387D01*
X001314Y014434D01*
X001327Y014480D01*
X001345Y014525D01*
X001365Y014569D01*
X001390Y014611D01*
X001418Y014650D01*
X001448Y014687D01*
X001482Y014721D01*
X001519Y014753D01*
X001557Y014782D01*
X001598Y014807D01*
X001641Y014829D01*
X001686Y014847D01*
X001732Y014861D01*
X001779Y014872D01*
X001827Y014879D01*
X001875Y014882D01*
X001923Y014881D01*
X001971Y014876D01*
X002019Y014867D01*
X002065Y014855D01*
X002110Y014838D01*
X002154Y014818D01*
X002196Y014795D01*
X002236Y014768D01*
X002274Y014738D01*
X002309Y014705D01*
X002341Y014669D01*
X002371Y014631D01*
X002397Y014590D01*
X002419Y014547D01*
X002439Y014503D01*
X002454Y014458D01*
X002466Y014411D01*
X002474Y014363D01*
X002478Y014315D01*
X002478Y014267D01*
X002474Y014219D01*
X002466Y014171D01*
X002454Y014124D01*
X002439Y014079D01*
X002419Y014035D01*
X002397Y013992D01*
X002371Y013951D01*
X002341Y013913D01*
X002309Y013877D01*
X002274Y013844D01*
X002236Y013814D01*
X002196Y013787D01*
X002154Y013764D01*
X002110Y013744D01*
X002065Y013727D01*
X002019Y013715D01*
X001971Y013706D01*
X001923Y013701D01*
X001875Y013700D01*
X001827Y013703D01*
X001779Y013710D01*
X001732Y013721D01*
X001686Y013735D01*
X001641Y013753D01*
X001598Y013775D01*
X001557Y013800D01*
X001519Y013829D01*
X001482Y013861D01*
X001448Y013895D01*
X001418Y013932D01*
X001390Y013971D01*
X001365Y014013D01*
X001345Y014057D01*
X001327Y014102D01*
X001314Y014148D01*
X001304Y014195D01*
X001298Y014243D01*
X001296Y014291D01*
X001108Y016086D02*
X001110Y016105D01*
X001115Y016124D01*
X001125Y016140D01*
X001137Y016155D01*
X001152Y016167D01*
X001168Y016177D01*
X001187Y016182D01*
X001206Y016184D01*
X001225Y016182D01*
X001244Y016177D01*
X001260Y016167D01*
X001275Y016155D01*
X001287Y016140D01*
X001297Y016124D01*
X001302Y016105D01*
X001304Y016086D01*
X001302Y016067D01*
X001297Y016048D01*
X001287Y016032D01*
X001275Y016017D01*
X001260Y016005D01*
X001244Y015995D01*
X001225Y015990D01*
X001206Y015988D01*
X001187Y015990D01*
X001168Y015995D01*
X001152Y016005D01*
X001137Y016017D01*
X001125Y016032D01*
X001115Y016048D01*
X001110Y016067D01*
X001108Y016086D01*
X001608Y016086D02*
X001610Y016105D01*
X001615Y016124D01*
X001625Y016140D01*
X001637Y016155D01*
X001652Y016167D01*
X001668Y016177D01*
X001687Y016182D01*
X001706Y016184D01*
X001725Y016182D01*
X001744Y016177D01*
X001760Y016167D01*
X001775Y016155D01*
X001787Y016140D01*
X001797Y016124D01*
X001802Y016105D01*
X001804Y016086D01*
X001802Y016067D01*
X001797Y016048D01*
X001787Y016032D01*
X001775Y016017D01*
X001760Y016005D01*
X001744Y015995D01*
X001725Y015990D01*
X001706Y015988D01*
X001687Y015990D01*
X001668Y015995D01*
X001652Y016005D01*
X001637Y016017D01*
X001625Y016032D01*
X001615Y016048D01*
X001610Y016067D01*
X001608Y016086D01*
X002108Y016086D02*
X002110Y016105D01*
X002115Y016124D01*
X002125Y016140D01*
X002137Y016155D01*
X002152Y016167D01*
X002168Y016177D01*
X002187Y016182D01*
X002206Y016184D01*
X002225Y016182D01*
X002244Y016177D01*
X002260Y016167D01*
X002275Y016155D01*
X002287Y016140D01*
X002297Y016124D01*
X002302Y016105D01*
X002304Y016086D01*
X002302Y016067D01*
X002297Y016048D01*
X002287Y016032D01*
X002275Y016017D01*
X002260Y016005D01*
X002244Y015995D01*
X002225Y015990D01*
X002206Y015988D01*
X002187Y015990D01*
X002168Y015995D01*
X002152Y016005D01*
X002137Y016017D01*
X002125Y016032D01*
X002115Y016048D01*
X002110Y016067D01*
X002108Y016086D01*
X002608Y016086D02*
X002610Y016105D01*
X002615Y016124D01*
X002625Y016140D01*
X002637Y016155D01*
X002652Y016167D01*
X002668Y016177D01*
X002687Y016182D01*
X002706Y016184D01*
X002725Y016182D01*
X002744Y016177D01*
X002760Y016167D01*
X002775Y016155D01*
X002787Y016140D01*
X002797Y016124D01*
X002802Y016105D01*
X002804Y016086D01*
X002802Y016067D01*
X002797Y016048D01*
X002787Y016032D01*
X002775Y016017D01*
X002760Y016005D01*
X002744Y015995D01*
X002725Y015990D01*
X002706Y015988D01*
X002687Y015990D01*
X002668Y015995D01*
X002652Y016005D01*
X002637Y016017D01*
X002625Y016032D01*
X002615Y016048D01*
X002610Y016067D01*
X002608Y016086D01*
X003108Y016086D02*
X003110Y016105D01*
X003115Y016124D01*
X003125Y016140D01*
X003137Y016155D01*
X003152Y016167D01*
X003168Y016177D01*
X003187Y016182D01*
X003206Y016184D01*
X003225Y016182D01*
X003244Y016177D01*
X003260Y016167D01*
X003275Y016155D01*
X003287Y016140D01*
X003297Y016124D01*
X003302Y016105D01*
X003304Y016086D01*
X003302Y016067D01*
X003297Y016048D01*
X003287Y016032D01*
X003275Y016017D01*
X003260Y016005D01*
X003244Y015995D01*
X003225Y015990D01*
X003206Y015988D01*
X003187Y015990D01*
X003168Y015995D01*
X003152Y016005D01*
X003137Y016017D01*
X003125Y016032D01*
X003115Y016048D01*
X003110Y016067D01*
X003108Y016086D01*
X003608Y016086D02*
X003610Y016105D01*
X003615Y016124D01*
X003625Y016140D01*
X003637Y016155D01*
X003652Y016167D01*
X003668Y016177D01*
X003687Y016182D01*
X003706Y016184D01*
X003725Y016182D01*
X003744Y016177D01*
X003760Y016167D01*
X003775Y016155D01*
X003787Y016140D01*
X003797Y016124D01*
X003802Y016105D01*
X003804Y016086D01*
X003802Y016067D01*
X003797Y016048D01*
X003787Y016032D01*
X003775Y016017D01*
X003760Y016005D01*
X003744Y015995D01*
X003725Y015990D01*
X003706Y015988D01*
X003687Y015990D01*
X003668Y015995D01*
X003652Y016005D01*
X003637Y016017D01*
X003625Y016032D01*
X003615Y016048D01*
X003610Y016067D01*
X003608Y016086D01*
X004108Y016086D02*
X004110Y016105D01*
X004115Y016124D01*
X004125Y016140D01*
X004137Y016155D01*
X004152Y016167D01*
X004168Y016177D01*
X004187Y016182D01*
X004206Y016184D01*
X004225Y016182D01*
X004244Y016177D01*
X004260Y016167D01*
X004275Y016155D01*
X004287Y016140D01*
X004297Y016124D01*
X004302Y016105D01*
X004304Y016086D01*
X004302Y016067D01*
X004297Y016048D01*
X004287Y016032D01*
X004275Y016017D01*
X004260Y016005D01*
X004244Y015995D01*
X004225Y015990D01*
X004206Y015988D01*
X004187Y015990D01*
X004168Y015995D01*
X004152Y016005D01*
X004137Y016017D01*
X004125Y016032D01*
X004115Y016048D01*
X004110Y016067D01*
X004108Y016086D01*
X004608Y016086D02*
X004610Y016105D01*
X004615Y016124D01*
X004625Y016140D01*
X004637Y016155D01*
X004652Y016167D01*
X004668Y016177D01*
X004687Y016182D01*
X004706Y016184D01*
X004725Y016182D01*
X004744Y016177D01*
X004760Y016167D01*
X004775Y016155D01*
X004787Y016140D01*
X004797Y016124D01*
X004802Y016105D01*
X004804Y016086D01*
X004802Y016067D01*
X004797Y016048D01*
X004787Y016032D01*
X004775Y016017D01*
X004760Y016005D01*
X004744Y015995D01*
X004725Y015990D01*
X004706Y015988D01*
X004687Y015990D01*
X004668Y015995D01*
X004652Y016005D01*
X004637Y016017D01*
X004625Y016032D01*
X004615Y016048D01*
X004610Y016067D01*
X004608Y016086D01*
X005108Y016086D02*
X005110Y016105D01*
X005115Y016124D01*
X005125Y016140D01*
X005137Y016155D01*
X005152Y016167D01*
X005168Y016177D01*
X005187Y016182D01*
X005206Y016184D01*
X005225Y016182D01*
X005244Y016177D01*
X005260Y016167D01*
X005275Y016155D01*
X005287Y016140D01*
X005297Y016124D01*
X005302Y016105D01*
X005304Y016086D01*
X005302Y016067D01*
X005297Y016048D01*
X005287Y016032D01*
X005275Y016017D01*
X005260Y016005D01*
X005244Y015995D01*
X005225Y015990D01*
X005206Y015988D01*
X005187Y015990D01*
X005168Y015995D01*
X005152Y016005D01*
X005137Y016017D01*
X005125Y016032D01*
X005115Y016048D01*
X005110Y016067D01*
X005108Y016086D01*
X005608Y016086D02*
X005610Y016105D01*
X005615Y016124D01*
X005625Y016140D01*
X005637Y016155D01*
X005652Y016167D01*
X005668Y016177D01*
X005687Y016182D01*
X005706Y016184D01*
X005725Y016182D01*
X005744Y016177D01*
X005760Y016167D01*
X005775Y016155D01*
X005787Y016140D01*
X005797Y016124D01*
X005802Y016105D01*
X005804Y016086D01*
X005802Y016067D01*
X005797Y016048D01*
X005787Y016032D01*
X005775Y016017D01*
X005760Y016005D01*
X005744Y015995D01*
X005725Y015990D01*
X005706Y015988D01*
X005687Y015990D01*
X005668Y015995D01*
X005652Y016005D01*
X005637Y016017D01*
X005625Y016032D01*
X005615Y016048D01*
X005610Y016067D01*
X005608Y016086D01*
X006108Y016086D02*
X006110Y016105D01*
X006115Y016124D01*
X006125Y016140D01*
X006137Y016155D01*
X006152Y016167D01*
X006168Y016177D01*
X006187Y016182D01*
X006206Y016184D01*
X006225Y016182D01*
X006244Y016177D01*
X006260Y016167D01*
X006275Y016155D01*
X006287Y016140D01*
X006297Y016124D01*
X006302Y016105D01*
X006304Y016086D01*
X006302Y016067D01*
X006297Y016048D01*
X006287Y016032D01*
X006275Y016017D01*
X006260Y016005D01*
X006244Y015995D01*
X006225Y015990D01*
X006206Y015988D01*
X006187Y015990D01*
X006168Y015995D01*
X006152Y016005D01*
X006137Y016017D01*
X006125Y016032D01*
X006115Y016048D01*
X006110Y016067D01*
X006108Y016086D01*
X006608Y016086D02*
X006610Y016105D01*
X006615Y016124D01*
X006625Y016140D01*
X006637Y016155D01*
X006652Y016167D01*
X006668Y016177D01*
X006687Y016182D01*
X006706Y016184D01*
X006725Y016182D01*
X006744Y016177D01*
X006760Y016167D01*
X006775Y016155D01*
X006787Y016140D01*
X006797Y016124D01*
X006802Y016105D01*
X006804Y016086D01*
X006802Y016067D01*
X006797Y016048D01*
X006787Y016032D01*
X006775Y016017D01*
X006760Y016005D01*
X006744Y015995D01*
X006725Y015990D01*
X006706Y015988D01*
X006687Y015990D01*
X006668Y015995D01*
X006652Y016005D01*
X006637Y016017D01*
X006625Y016032D01*
X006615Y016048D01*
X006610Y016067D01*
X006608Y016086D01*
X007108Y016086D02*
X007110Y016105D01*
X007115Y016124D01*
X007125Y016140D01*
X007137Y016155D01*
X007152Y016167D01*
X007168Y016177D01*
X007187Y016182D01*
X007206Y016184D01*
X007225Y016182D01*
X007244Y016177D01*
X007260Y016167D01*
X007275Y016155D01*
X007287Y016140D01*
X007297Y016124D01*
X007302Y016105D01*
X007304Y016086D01*
X007302Y016067D01*
X007297Y016048D01*
X007287Y016032D01*
X007275Y016017D01*
X007260Y016005D01*
X007244Y015995D01*
X007225Y015990D01*
X007206Y015988D01*
X007187Y015990D01*
X007168Y015995D01*
X007152Y016005D01*
X007137Y016017D01*
X007125Y016032D01*
X007115Y016048D01*
X007110Y016067D01*
X007108Y016086D01*
X007608Y016086D02*
X007610Y016105D01*
X007615Y016124D01*
X007625Y016140D01*
X007637Y016155D01*
X007652Y016167D01*
X007668Y016177D01*
X007687Y016182D01*
X007706Y016184D01*
X007725Y016182D01*
X007744Y016177D01*
X007760Y016167D01*
X007775Y016155D01*
X007787Y016140D01*
X007797Y016124D01*
X007802Y016105D01*
X007804Y016086D01*
X007802Y016067D01*
X007797Y016048D01*
X007787Y016032D01*
X007775Y016017D01*
X007760Y016005D01*
X007744Y015995D01*
X007725Y015990D01*
X007706Y015988D01*
X007687Y015990D01*
X007668Y015995D01*
X007652Y016005D01*
X007637Y016017D01*
X007625Y016032D01*
X007615Y016048D01*
X007610Y016067D01*
X007608Y016086D01*
X008108Y016086D02*
X008110Y016105D01*
X008115Y016124D01*
X008125Y016140D01*
X008137Y016155D01*
X008152Y016167D01*
X008168Y016177D01*
X008187Y016182D01*
X008206Y016184D01*
X008225Y016182D01*
X008244Y016177D01*
X008260Y016167D01*
X008275Y016155D01*
X008287Y016140D01*
X008297Y016124D01*
X008302Y016105D01*
X008304Y016086D01*
X008302Y016067D01*
X008297Y016048D01*
X008287Y016032D01*
X008275Y016017D01*
X008260Y016005D01*
X008244Y015995D01*
X008225Y015990D01*
X008206Y015988D01*
X008187Y015990D01*
X008168Y015995D01*
X008152Y016005D01*
X008137Y016017D01*
X008125Y016032D01*
X008115Y016048D01*
X008110Y016067D01*
X008108Y016086D01*
X008608Y016086D02*
X008610Y016105D01*
X008615Y016124D01*
X008625Y016140D01*
X008637Y016155D01*
X008652Y016167D01*
X008668Y016177D01*
X008687Y016182D01*
X008706Y016184D01*
X008725Y016182D01*
X008744Y016177D01*
X008760Y016167D01*
X008775Y016155D01*
X008787Y016140D01*
X008797Y016124D01*
X008802Y016105D01*
X008804Y016086D01*
X008802Y016067D01*
X008797Y016048D01*
X008787Y016032D01*
X008775Y016017D01*
X008760Y016005D01*
X008744Y015995D01*
X008725Y015990D01*
X008706Y015988D01*
X008687Y015990D01*
X008668Y015995D01*
X008652Y016005D01*
X008637Y016017D01*
X008625Y016032D01*
X008615Y016048D01*
X008610Y016067D01*
X008608Y016086D01*
X009108Y016086D02*
X009110Y016105D01*
X009115Y016124D01*
X009125Y016140D01*
X009137Y016155D01*
X009152Y016167D01*
X009168Y016177D01*
X009187Y016182D01*
X009206Y016184D01*
X009225Y016182D01*
X009244Y016177D01*
X009260Y016167D01*
X009275Y016155D01*
X009287Y016140D01*
X009297Y016124D01*
X009302Y016105D01*
X009304Y016086D01*
X009302Y016067D01*
X009297Y016048D01*
X009287Y016032D01*
X009275Y016017D01*
X009260Y016005D01*
X009244Y015995D01*
X009225Y015990D01*
X009206Y015988D01*
X009187Y015990D01*
X009168Y015995D01*
X009152Y016005D01*
X009137Y016017D01*
X009125Y016032D01*
X009115Y016048D01*
X009110Y016067D01*
X009108Y016086D01*
X009608Y016086D02*
X009610Y016105D01*
X009615Y016124D01*
X009625Y016140D01*
X009637Y016155D01*
X009652Y016167D01*
X009668Y016177D01*
X009687Y016182D01*
X009706Y016184D01*
X009725Y016182D01*
X009744Y016177D01*
X009760Y016167D01*
X009775Y016155D01*
X009787Y016140D01*
X009797Y016124D01*
X009802Y016105D01*
X009804Y016086D01*
X009802Y016067D01*
X009797Y016048D01*
X009787Y016032D01*
X009775Y016017D01*
X009760Y016005D01*
X009744Y015995D01*
X009725Y015990D01*
X009706Y015988D01*
X009687Y015990D01*
X009668Y015995D01*
X009652Y016005D01*
X009637Y016017D01*
X009625Y016032D01*
X009615Y016048D01*
X009610Y016067D01*
X009608Y016086D01*
X010108Y016086D02*
X010110Y016105D01*
X010115Y016124D01*
X010125Y016140D01*
X010137Y016155D01*
X010152Y016167D01*
X010168Y016177D01*
X010187Y016182D01*
X010206Y016184D01*
X010225Y016182D01*
X010244Y016177D01*
X010260Y016167D01*
X010275Y016155D01*
X010287Y016140D01*
X010297Y016124D01*
X010302Y016105D01*
X010304Y016086D01*
X010302Y016067D01*
X010297Y016048D01*
X010287Y016032D01*
X010275Y016017D01*
X010260Y016005D01*
X010244Y015995D01*
X010225Y015990D01*
X010206Y015988D01*
X010187Y015990D01*
X010168Y015995D01*
X010152Y016005D01*
X010137Y016017D01*
X010125Y016032D01*
X010115Y016048D01*
X010110Y016067D01*
X010108Y016086D01*
X010608Y016086D02*
X010610Y016105D01*
X010615Y016124D01*
X010625Y016140D01*
X010637Y016155D01*
X010652Y016167D01*
X010668Y016177D01*
X010687Y016182D01*
X010706Y016184D01*
X010725Y016182D01*
X010744Y016177D01*
X010760Y016167D01*
X010775Y016155D01*
X010787Y016140D01*
X010797Y016124D01*
X010802Y016105D01*
X010804Y016086D01*
X010802Y016067D01*
X010797Y016048D01*
X010787Y016032D01*
X010775Y016017D01*
X010760Y016005D01*
X010744Y015995D01*
X010725Y015990D01*
X010706Y015988D01*
X010687Y015990D01*
X010668Y015995D01*
X010652Y016005D01*
X010637Y016017D01*
X010625Y016032D01*
X010615Y016048D01*
X010610Y016067D01*
X010608Y016086D01*
X011108Y016086D02*
X011110Y016105D01*
X011115Y016124D01*
X011125Y016140D01*
X011137Y016155D01*
X011152Y016167D01*
X011168Y016177D01*
X011187Y016182D01*
X011206Y016184D01*
X011225Y016182D01*
X011244Y016177D01*
X011260Y016167D01*
X011275Y016155D01*
X011287Y016140D01*
X011297Y016124D01*
X011302Y016105D01*
X011304Y016086D01*
X011302Y016067D01*
X011297Y016048D01*
X011287Y016032D01*
X011275Y016017D01*
X011260Y016005D01*
X011244Y015995D01*
X011225Y015990D01*
X011206Y015988D01*
X011187Y015990D01*
X011168Y015995D01*
X011152Y016005D01*
X011137Y016017D01*
X011125Y016032D01*
X011115Y016048D01*
X011110Y016067D01*
X011108Y016086D01*
X011608Y016086D02*
X011610Y016105D01*
X011615Y016124D01*
X011625Y016140D01*
X011637Y016155D01*
X011652Y016167D01*
X011668Y016177D01*
X011687Y016182D01*
X011706Y016184D01*
X011725Y016182D01*
X011744Y016177D01*
X011760Y016167D01*
X011775Y016155D01*
X011787Y016140D01*
X011797Y016124D01*
X011802Y016105D01*
X011804Y016086D01*
X011802Y016067D01*
X011797Y016048D01*
X011787Y016032D01*
X011775Y016017D01*
X011760Y016005D01*
X011744Y015995D01*
X011725Y015990D01*
X011706Y015988D01*
X011687Y015990D01*
X011668Y015995D01*
X011652Y016005D01*
X011637Y016017D01*
X011625Y016032D01*
X011615Y016048D01*
X011610Y016067D01*
X011608Y016086D01*
X012108Y016086D02*
X012110Y016105D01*
X012115Y016124D01*
X012125Y016140D01*
X012137Y016155D01*
X012152Y016167D01*
X012168Y016177D01*
X012187Y016182D01*
X012206Y016184D01*
X012225Y016182D01*
X012244Y016177D01*
X012260Y016167D01*
X012275Y016155D01*
X012287Y016140D01*
X012297Y016124D01*
X012302Y016105D01*
X012304Y016086D01*
X012302Y016067D01*
X012297Y016048D01*
X012287Y016032D01*
X012275Y016017D01*
X012260Y016005D01*
X012244Y015995D01*
X012225Y015990D01*
X012206Y015988D01*
X012187Y015990D01*
X012168Y015995D01*
X012152Y016005D01*
X012137Y016017D01*
X012125Y016032D01*
X012115Y016048D01*
X012110Y016067D01*
X012108Y016086D01*
X012608Y016086D02*
X012610Y016105D01*
X012615Y016124D01*
X012625Y016140D01*
X012637Y016155D01*
X012652Y016167D01*
X012668Y016177D01*
X012687Y016182D01*
X012706Y016184D01*
X012725Y016182D01*
X012744Y016177D01*
X012760Y016167D01*
X012775Y016155D01*
X012787Y016140D01*
X012797Y016124D01*
X012802Y016105D01*
X012804Y016086D01*
X012802Y016067D01*
X012797Y016048D01*
X012787Y016032D01*
X012775Y016017D01*
X012760Y016005D01*
X012744Y015995D01*
X012725Y015990D01*
X012706Y015988D01*
X012687Y015990D01*
X012668Y015995D01*
X012652Y016005D01*
X012637Y016017D01*
X012625Y016032D01*
X012615Y016048D01*
X012610Y016067D01*
X012608Y016086D01*
X013108Y016086D02*
X013110Y016105D01*
X013115Y016124D01*
X013125Y016140D01*
X013137Y016155D01*
X013152Y016167D01*
X013168Y016177D01*
X013187Y016182D01*
X013206Y016184D01*
X013225Y016182D01*
X013244Y016177D01*
X013260Y016167D01*
X013275Y016155D01*
X013287Y016140D01*
X013297Y016124D01*
X013302Y016105D01*
X013304Y016086D01*
X013302Y016067D01*
X013297Y016048D01*
X013287Y016032D01*
X013275Y016017D01*
X013260Y016005D01*
X013244Y015995D01*
X013225Y015990D01*
X013206Y015988D01*
X013187Y015990D01*
X013168Y015995D01*
X013152Y016005D01*
X013137Y016017D01*
X013125Y016032D01*
X013115Y016048D01*
X013110Y016067D01*
X013108Y016086D01*
X013608Y016086D02*
X013610Y016105D01*
X013615Y016124D01*
X013625Y016140D01*
X013637Y016155D01*
X013652Y016167D01*
X013668Y016177D01*
X013687Y016182D01*
X013706Y016184D01*
X013725Y016182D01*
X013744Y016177D01*
X013760Y016167D01*
X013775Y016155D01*
X013787Y016140D01*
X013797Y016124D01*
X013802Y016105D01*
X013804Y016086D01*
X013802Y016067D01*
X013797Y016048D01*
X013787Y016032D01*
X013775Y016017D01*
X013760Y016005D01*
X013744Y015995D01*
X013725Y015990D01*
X013706Y015988D01*
X013687Y015990D01*
X013668Y015995D01*
X013652Y016005D01*
X013637Y016017D01*
X013625Y016032D01*
X013615Y016048D01*
X013610Y016067D01*
X013608Y016086D01*
X014108Y016086D02*
X014110Y016105D01*
X014115Y016124D01*
X014125Y016140D01*
X014137Y016155D01*
X014152Y016167D01*
X014168Y016177D01*
X014187Y016182D01*
X014206Y016184D01*
X014225Y016182D01*
X014244Y016177D01*
X014260Y016167D01*
X014275Y016155D01*
X014287Y016140D01*
X014297Y016124D01*
X014302Y016105D01*
X014304Y016086D01*
X014302Y016067D01*
X014297Y016048D01*
X014287Y016032D01*
X014275Y016017D01*
X014260Y016005D01*
X014244Y015995D01*
X014225Y015990D01*
X014206Y015988D01*
X014187Y015990D01*
X014168Y015995D01*
X014152Y016005D01*
X014137Y016017D01*
X014125Y016032D01*
X014115Y016048D01*
X014110Y016067D01*
X014108Y016086D01*
X014608Y016086D02*
X014610Y016105D01*
X014615Y016124D01*
X014625Y016140D01*
X014637Y016155D01*
X014652Y016167D01*
X014668Y016177D01*
X014687Y016182D01*
X014706Y016184D01*
X014725Y016182D01*
X014744Y016177D01*
X014760Y016167D01*
X014775Y016155D01*
X014787Y016140D01*
X014797Y016124D01*
X014802Y016105D01*
X014804Y016086D01*
X014802Y016067D01*
X014797Y016048D01*
X014787Y016032D01*
X014775Y016017D01*
X014760Y016005D01*
X014744Y015995D01*
X014725Y015990D01*
X014706Y015988D01*
X014687Y015990D01*
X014668Y015995D01*
X014652Y016005D01*
X014637Y016017D01*
X014625Y016032D01*
X014615Y016048D01*
X014610Y016067D01*
X014608Y016086D01*
X015108Y016086D02*
X015110Y016105D01*
X015115Y016124D01*
X015125Y016140D01*
X015137Y016155D01*
X015152Y016167D01*
X015168Y016177D01*
X015187Y016182D01*
X015206Y016184D01*
X015225Y016182D01*
X015244Y016177D01*
X015260Y016167D01*
X015275Y016155D01*
X015287Y016140D01*
X015297Y016124D01*
X015302Y016105D01*
X015304Y016086D01*
X015302Y016067D01*
X015297Y016048D01*
X015287Y016032D01*
X015275Y016017D01*
X015260Y016005D01*
X015244Y015995D01*
X015225Y015990D01*
X015206Y015988D01*
X015187Y015990D01*
X015168Y015995D01*
X015152Y016005D01*
X015137Y016017D01*
X015125Y016032D01*
X015115Y016048D01*
X015110Y016067D01*
X015108Y016086D01*
X015608Y016086D02*
X015610Y016105D01*
X015615Y016124D01*
X015625Y016140D01*
X015637Y016155D01*
X015652Y016167D01*
X015668Y016177D01*
X015687Y016182D01*
X015706Y016184D01*
X015725Y016182D01*
X015744Y016177D01*
X015760Y016167D01*
X015775Y016155D01*
X015787Y016140D01*
X015797Y016124D01*
X015802Y016105D01*
X015804Y016086D01*
X015802Y016067D01*
X015797Y016048D01*
X015787Y016032D01*
X015775Y016017D01*
X015760Y016005D01*
X015744Y015995D01*
X015725Y015990D01*
X015706Y015988D01*
X015687Y015990D01*
X015668Y015995D01*
X015652Y016005D01*
X015637Y016017D01*
X015625Y016032D01*
X015615Y016048D01*
X015610Y016067D01*
X015608Y016086D01*
X016108Y016086D02*
X016110Y016105D01*
X016115Y016124D01*
X016125Y016140D01*
X016137Y016155D01*
X016152Y016167D01*
X016168Y016177D01*
X016187Y016182D01*
X016206Y016184D01*
X016225Y016182D01*
X016244Y016177D01*
X016260Y016167D01*
X016275Y016155D01*
X016287Y016140D01*
X016297Y016124D01*
X016302Y016105D01*
X016304Y016086D01*
X016302Y016067D01*
X016297Y016048D01*
X016287Y016032D01*
X016275Y016017D01*
X016260Y016005D01*
X016244Y015995D01*
X016225Y015990D01*
X016206Y015988D01*
X016187Y015990D01*
X016168Y015995D01*
X016152Y016005D01*
X016137Y016017D01*
X016125Y016032D01*
X016115Y016048D01*
X016110Y016067D01*
X016108Y016086D01*
X016608Y016086D02*
X016610Y016105D01*
X016615Y016124D01*
X016625Y016140D01*
X016637Y016155D01*
X016652Y016167D01*
X016668Y016177D01*
X016687Y016182D01*
X016706Y016184D01*
X016725Y016182D01*
X016744Y016177D01*
X016760Y016167D01*
X016775Y016155D01*
X016787Y016140D01*
X016797Y016124D01*
X016802Y016105D01*
X016804Y016086D01*
X016802Y016067D01*
X016797Y016048D01*
X016787Y016032D01*
X016775Y016017D01*
X016760Y016005D01*
X016744Y015995D01*
X016725Y015990D01*
X016706Y015988D01*
X016687Y015990D01*
X016668Y015995D01*
X016652Y016005D01*
X016637Y016017D01*
X016625Y016032D01*
X016615Y016048D01*
X016610Y016067D01*
X016608Y016086D01*
X017108Y016086D02*
X017110Y016105D01*
X017115Y016124D01*
X017125Y016140D01*
X017137Y016155D01*
X017152Y016167D01*
X017168Y016177D01*
X017187Y016182D01*
X017206Y016184D01*
X017225Y016182D01*
X017244Y016177D01*
X017260Y016167D01*
X017275Y016155D01*
X017287Y016140D01*
X017297Y016124D01*
X017302Y016105D01*
X017304Y016086D01*
X017302Y016067D01*
X017297Y016048D01*
X017287Y016032D01*
X017275Y016017D01*
X017260Y016005D01*
X017244Y015995D01*
X017225Y015990D01*
X017206Y015988D01*
X017187Y015990D01*
X017168Y015995D01*
X017152Y016005D01*
X017137Y016017D01*
X017125Y016032D01*
X017115Y016048D01*
X017110Y016067D01*
X017108Y016086D01*
X017608Y016086D02*
X017610Y016105D01*
X017615Y016124D01*
X017625Y016140D01*
X017637Y016155D01*
X017652Y016167D01*
X017668Y016177D01*
X017687Y016182D01*
X017706Y016184D01*
X017725Y016182D01*
X017744Y016177D01*
X017760Y016167D01*
X017775Y016155D01*
X017787Y016140D01*
X017797Y016124D01*
X017802Y016105D01*
X017804Y016086D01*
X017802Y016067D01*
X017797Y016048D01*
X017787Y016032D01*
X017775Y016017D01*
X017760Y016005D01*
X017744Y015995D01*
X017725Y015990D01*
X017706Y015988D01*
X017687Y015990D01*
X017668Y015995D01*
X017652Y016005D01*
X017637Y016017D01*
X017625Y016032D01*
X017615Y016048D01*
X017610Y016067D01*
X017608Y016086D01*
X018108Y016086D02*
X018110Y016105D01*
X018115Y016124D01*
X018125Y016140D01*
X018137Y016155D01*
X018152Y016167D01*
X018168Y016177D01*
X018187Y016182D01*
X018206Y016184D01*
X018225Y016182D01*
X018244Y016177D01*
X018260Y016167D01*
X018275Y016155D01*
X018287Y016140D01*
X018297Y016124D01*
X018302Y016105D01*
X018304Y016086D01*
X018302Y016067D01*
X018297Y016048D01*
X018287Y016032D01*
X018275Y016017D01*
X018260Y016005D01*
X018244Y015995D01*
X018225Y015990D01*
X018206Y015988D01*
X018187Y015990D01*
X018168Y015995D01*
X018152Y016005D01*
X018137Y016017D01*
X018125Y016032D01*
X018115Y016048D01*
X018110Y016067D01*
X018108Y016086D01*
X018608Y016086D02*
X018610Y016105D01*
X018615Y016124D01*
X018625Y016140D01*
X018637Y016155D01*
X018652Y016167D01*
X018668Y016177D01*
X018687Y016182D01*
X018706Y016184D01*
X018725Y016182D01*
X018744Y016177D01*
X018760Y016167D01*
X018775Y016155D01*
X018787Y016140D01*
X018797Y016124D01*
X018802Y016105D01*
X018804Y016086D01*
X018802Y016067D01*
X018797Y016048D01*
X018787Y016032D01*
X018775Y016017D01*
X018760Y016005D01*
X018744Y015995D01*
X018725Y015990D01*
X018706Y015988D01*
X018687Y015990D01*
X018668Y015995D01*
X018652Y016005D01*
X018637Y016017D01*
X018625Y016032D01*
X018615Y016048D01*
X018610Y016067D01*
X018608Y016086D01*
X019108Y016086D02*
X019110Y016105D01*
X019115Y016124D01*
X019125Y016140D01*
X019137Y016155D01*
X019152Y016167D01*
X019168Y016177D01*
X019187Y016182D01*
X019206Y016184D01*
X019225Y016182D01*
X019244Y016177D01*
X019260Y016167D01*
X019275Y016155D01*
X019287Y016140D01*
X019297Y016124D01*
X019302Y016105D01*
X019304Y016086D01*
X019302Y016067D01*
X019297Y016048D01*
X019287Y016032D01*
X019275Y016017D01*
X019260Y016005D01*
X019244Y015995D01*
X019225Y015990D01*
X019206Y015988D01*
X019187Y015990D01*
X019168Y015995D01*
X019152Y016005D01*
X019137Y016017D01*
X019125Y016032D01*
X019115Y016048D01*
X019110Y016067D01*
X019108Y016086D01*
X019608Y016086D02*
X019610Y016105D01*
X019615Y016124D01*
X019625Y016140D01*
X019637Y016155D01*
X019652Y016167D01*
X019668Y016177D01*
X019687Y016182D01*
X019706Y016184D01*
X019725Y016182D01*
X019744Y016177D01*
X019760Y016167D01*
X019775Y016155D01*
X019787Y016140D01*
X019797Y016124D01*
X019802Y016105D01*
X019804Y016086D01*
X019802Y016067D01*
X019797Y016048D01*
X019787Y016032D01*
X019775Y016017D01*
X019760Y016005D01*
X019744Y015995D01*
X019725Y015990D01*
X019706Y015988D01*
X019687Y015990D01*
X019668Y015995D01*
X019652Y016005D01*
X019637Y016017D01*
X019625Y016032D01*
X019615Y016048D01*
X019610Y016067D01*
X019608Y016086D01*
X020108Y016086D02*
X020110Y016105D01*
X020115Y016124D01*
X020125Y016140D01*
X020137Y016155D01*
X020152Y016167D01*
X020168Y016177D01*
X020187Y016182D01*
X020206Y016184D01*
X020225Y016182D01*
X020244Y016177D01*
X020260Y016167D01*
X020275Y016155D01*
X020287Y016140D01*
X020297Y016124D01*
X020302Y016105D01*
X020304Y016086D01*
X020302Y016067D01*
X020297Y016048D01*
X020287Y016032D01*
X020275Y016017D01*
X020260Y016005D01*
X020244Y015995D01*
X020225Y015990D01*
X020206Y015988D01*
X020187Y015990D01*
X020168Y015995D01*
X020152Y016005D01*
X020137Y016017D01*
X020125Y016032D01*
X020115Y016048D01*
X020110Y016067D01*
X020108Y016086D01*
X020608Y016086D02*
X020610Y016105D01*
X020615Y016124D01*
X020625Y016140D01*
X020637Y016155D01*
X020652Y016167D01*
X020668Y016177D01*
X020687Y016182D01*
X020706Y016184D01*
X020725Y016182D01*
X020744Y016177D01*
X020760Y016167D01*
X020775Y016155D01*
X020787Y016140D01*
X020797Y016124D01*
X020802Y016105D01*
X020804Y016086D01*
X020802Y016067D01*
X020797Y016048D01*
X020787Y016032D01*
X020775Y016017D01*
X020760Y016005D01*
X020744Y015995D01*
X020725Y015990D01*
X020706Y015988D01*
X020687Y015990D01*
X020668Y015995D01*
X020652Y016005D01*
X020637Y016017D01*
X020625Y016032D01*
X020615Y016048D01*
X020610Y016067D01*
X020608Y016086D01*
X021108Y016086D02*
X021110Y016105D01*
X021115Y016124D01*
X021125Y016140D01*
X021137Y016155D01*
X021152Y016167D01*
X021168Y016177D01*
X021187Y016182D01*
X021206Y016184D01*
X021225Y016182D01*
X021244Y016177D01*
X021260Y016167D01*
X021275Y016155D01*
X021287Y016140D01*
X021297Y016124D01*
X021302Y016105D01*
X021304Y016086D01*
X021302Y016067D01*
X021297Y016048D01*
X021287Y016032D01*
X021275Y016017D01*
X021260Y016005D01*
X021244Y015995D01*
X021225Y015990D01*
X021206Y015988D01*
X021187Y015990D01*
X021168Y015995D01*
X021152Y016005D01*
X021137Y016017D01*
X021125Y016032D01*
X021115Y016048D01*
X021110Y016067D01*
X021108Y016086D01*
X021608Y016086D02*
X021610Y016105D01*
X021615Y016124D01*
X021625Y016140D01*
X021637Y016155D01*
X021652Y016167D01*
X021668Y016177D01*
X021687Y016182D01*
X021706Y016184D01*
X021725Y016182D01*
X021744Y016177D01*
X021760Y016167D01*
X021775Y016155D01*
X021787Y016140D01*
X021797Y016124D01*
X021802Y016105D01*
X021804Y016086D01*
X021802Y016067D01*
X021797Y016048D01*
X021787Y016032D01*
X021775Y016017D01*
X021760Y016005D01*
X021744Y015995D01*
X021725Y015990D01*
X021706Y015988D01*
X021687Y015990D01*
X021668Y015995D01*
X021652Y016005D01*
X021637Y016017D01*
X021625Y016032D01*
X021615Y016048D01*
X021610Y016067D01*
X021608Y016086D01*
X022108Y016086D02*
X022110Y016105D01*
X022115Y016124D01*
X022125Y016140D01*
X022137Y016155D01*
X022152Y016167D01*
X022168Y016177D01*
X022187Y016182D01*
X022206Y016184D01*
X022225Y016182D01*
X022244Y016177D01*
X022260Y016167D01*
X022275Y016155D01*
X022287Y016140D01*
X022297Y016124D01*
X022302Y016105D01*
X022304Y016086D01*
X022302Y016067D01*
X022297Y016048D01*
X022287Y016032D01*
X022275Y016017D01*
X022260Y016005D01*
X022244Y015995D01*
X022225Y015990D01*
X022206Y015988D01*
X022187Y015990D01*
X022168Y015995D01*
X022152Y016005D01*
X022137Y016017D01*
X022125Y016032D01*
X022115Y016048D01*
X022110Y016067D01*
X022108Y016086D01*
X020587Y014291D02*
X020589Y014339D01*
X020595Y014387D01*
X020605Y014434D01*
X020618Y014480D01*
X020636Y014525D01*
X020656Y014569D01*
X020681Y014611D01*
X020709Y014650D01*
X020739Y014687D01*
X020773Y014721D01*
X020810Y014753D01*
X020848Y014782D01*
X020889Y014807D01*
X020932Y014829D01*
X020977Y014847D01*
X021023Y014861D01*
X021070Y014872D01*
X021118Y014879D01*
X021166Y014882D01*
X021214Y014881D01*
X021262Y014876D01*
X021310Y014867D01*
X021356Y014855D01*
X021401Y014838D01*
X021445Y014818D01*
X021487Y014795D01*
X021527Y014768D01*
X021565Y014738D01*
X021600Y014705D01*
X021632Y014669D01*
X021662Y014631D01*
X021688Y014590D01*
X021710Y014547D01*
X021730Y014503D01*
X021745Y014458D01*
X021757Y014411D01*
X021765Y014363D01*
X021769Y014315D01*
X021769Y014267D01*
X021765Y014219D01*
X021757Y014171D01*
X021745Y014124D01*
X021730Y014079D01*
X021710Y014035D01*
X021688Y013992D01*
X021662Y013951D01*
X021632Y013913D01*
X021600Y013877D01*
X021565Y013844D01*
X021527Y013814D01*
X021487Y013787D01*
X021445Y013764D01*
X021401Y013744D01*
X021356Y013727D01*
X021310Y013715D01*
X021262Y013706D01*
X021214Y013701D01*
X021166Y013700D01*
X021118Y013703D01*
X021070Y013710D01*
X021023Y013721D01*
X020977Y013735D01*
X020932Y013753D01*
X020889Y013775D01*
X020848Y013800D01*
X020810Y013829D01*
X020773Y013861D01*
X020739Y013895D01*
X020709Y013932D01*
X020681Y013971D01*
X020656Y014013D01*
X020636Y014057D01*
X020618Y014102D01*
X020605Y014148D01*
X020595Y014195D01*
X020589Y014243D01*
X020587Y014291D01*
X020587Y003267D02*
X020589Y003315D01*
X020595Y003363D01*
X020605Y003410D01*
X020618Y003456D01*
X020636Y003501D01*
X020656Y003545D01*
X020681Y003587D01*
X020709Y003626D01*
X020739Y003663D01*
X020773Y003697D01*
X020810Y003729D01*
X020848Y003758D01*
X020889Y003783D01*
X020932Y003805D01*
X020977Y003823D01*
X021023Y003837D01*
X021070Y003848D01*
X021118Y003855D01*
X021166Y003858D01*
X021214Y003857D01*
X021262Y003852D01*
X021310Y003843D01*
X021356Y003831D01*
X021401Y003814D01*
X021445Y003794D01*
X021487Y003771D01*
X021527Y003744D01*
X021565Y003714D01*
X021600Y003681D01*
X021632Y003645D01*
X021662Y003607D01*
X021688Y003566D01*
X021710Y003523D01*
X021730Y003479D01*
X021745Y003434D01*
X021757Y003387D01*
X021765Y003339D01*
X021769Y003291D01*
X021769Y003243D01*
X021765Y003195D01*
X021757Y003147D01*
X021745Y003100D01*
X021730Y003055D01*
X021710Y003011D01*
X021688Y002968D01*
X021662Y002927D01*
X021632Y002889D01*
X021600Y002853D01*
X021565Y002820D01*
X021527Y002790D01*
X021487Y002763D01*
X021445Y002740D01*
X021401Y002720D01*
X021356Y002703D01*
X021310Y002691D01*
X021262Y002682D01*
X021214Y002677D01*
X021166Y002676D01*
X021118Y002679D01*
X021070Y002686D01*
X021023Y002697D01*
X020977Y002711D01*
X020932Y002729D01*
X020889Y002751D01*
X020848Y002776D01*
X020810Y002805D01*
X020773Y002837D01*
X020739Y002871D01*
X020709Y002908D01*
X020681Y002947D01*
X020656Y002989D01*
X020636Y003033D01*
X020618Y003078D01*
X020605Y003124D01*
X020595Y003171D01*
X020589Y003219D01*
X020587Y003267D01*
X020587Y026496D02*
X020589Y026544D01*
X020595Y026592D01*
X020605Y026639D01*
X020618Y026685D01*
X020636Y026730D01*
X020656Y026774D01*
X020681Y026816D01*
X020709Y026855D01*
X020739Y026892D01*
X020773Y026926D01*
X020810Y026958D01*
X020848Y026987D01*
X020889Y027012D01*
X020932Y027034D01*
X020977Y027052D01*
X021023Y027066D01*
X021070Y027077D01*
X021118Y027084D01*
X021166Y027087D01*
X021214Y027086D01*
X021262Y027081D01*
X021310Y027072D01*
X021356Y027060D01*
X021401Y027043D01*
X021445Y027023D01*
X021487Y027000D01*
X021527Y026973D01*
X021565Y026943D01*
X021600Y026910D01*
X021632Y026874D01*
X021662Y026836D01*
X021688Y026795D01*
X021710Y026752D01*
X021730Y026708D01*
X021745Y026663D01*
X021757Y026616D01*
X021765Y026568D01*
X021769Y026520D01*
X021769Y026472D01*
X021765Y026424D01*
X021757Y026376D01*
X021745Y026329D01*
X021730Y026284D01*
X021710Y026240D01*
X021688Y026197D01*
X021662Y026156D01*
X021632Y026118D01*
X021600Y026082D01*
X021565Y026049D01*
X021527Y026019D01*
X021487Y025992D01*
X021445Y025969D01*
X021401Y025949D01*
X021356Y025932D01*
X021310Y025920D01*
X021262Y025911D01*
X021214Y025906D01*
X021166Y025905D01*
X021118Y025908D01*
X021070Y025915D01*
X021023Y025926D01*
X020977Y025940D01*
X020932Y025958D01*
X020889Y025980D01*
X020848Y026005D01*
X020810Y026034D01*
X020773Y026066D01*
X020739Y026100D01*
X020709Y026137D01*
X020681Y026176D01*
X020656Y026218D01*
X020636Y026262D01*
X020618Y026307D01*
X020605Y026353D01*
X020595Y026400D01*
X020589Y026448D01*
X020587Y026496D01*
X001296Y026496D02*
X001298Y026544D01*
X001304Y026592D01*
X001314Y026639D01*
X001327Y026685D01*
X001345Y026730D01*
X001365Y026774D01*
X001390Y026816D01*
X001418Y026855D01*
X001448Y026892D01*
X001482Y026926D01*
X001519Y026958D01*
X001557Y026987D01*
X001598Y027012D01*
X001641Y027034D01*
X001686Y027052D01*
X001732Y027066D01*
X001779Y027077D01*
X001827Y027084D01*
X001875Y027087D01*
X001923Y027086D01*
X001971Y027081D01*
X002019Y027072D01*
X002065Y027060D01*
X002110Y027043D01*
X002154Y027023D01*
X002196Y027000D01*
X002236Y026973D01*
X002274Y026943D01*
X002309Y026910D01*
X002341Y026874D01*
X002371Y026836D01*
X002397Y026795D01*
X002419Y026752D01*
X002439Y026708D01*
X002454Y026663D01*
X002466Y026616D01*
X002474Y026568D01*
X002478Y026520D01*
X002478Y026472D01*
X002474Y026424D01*
X002466Y026376D01*
X002454Y026329D01*
X002439Y026284D01*
X002419Y026240D01*
X002397Y026197D01*
X002371Y026156D01*
X002341Y026118D01*
X002309Y026082D01*
X002274Y026049D01*
X002236Y026019D01*
X002196Y025992D01*
X002154Y025969D01*
X002110Y025949D01*
X002065Y025932D01*
X002019Y025920D01*
X001971Y025911D01*
X001923Y025906D01*
X001875Y025905D01*
X001827Y025908D01*
X001779Y025915D01*
X001732Y025926D01*
X001686Y025940D01*
X001641Y025958D01*
X001598Y025980D01*
X001557Y026005D01*
X001519Y026034D01*
X001482Y026066D01*
X001448Y026100D01*
X001418Y026137D01*
X001390Y026176D01*
X001365Y026218D01*
X001345Y026262D01*
X001327Y026307D01*
X001314Y026353D01*
X001304Y026400D01*
X001298Y026448D01*
X001296Y026496D01*
M02*
